<mxfile host="app.diagrams.net" modified="2024-02-18T22:38:27.288Z" agent="Mozilla/5.0 (Macintosh; Intel Mac OS X 10_15_7) AppleWebKit/605.1.15 (KHTML, like Gecko) Version/17.3.1 Safari/605.1.15" etag="ZpW28AG9M1-XKDWurGQ0" version="23.1.5" type="device">
  <diagram id="C5RBs43oDa-KdzZeNtuy" name="Page-1">
    <mxGraphModel dx="2034" dy="814" grid="1" gridSize="10" guides="1" tooltips="1" connect="1" arrows="1" fold="1" page="1" pageScale="1" pageWidth="827" pageHeight="1169" math="0" shadow="0">
      <root>
        <mxCell id="WIyWlLk6GJQsqaUBKTNV-0" />
        <mxCell id="WIyWlLk6GJQsqaUBKTNV-1" parent="WIyWlLk6GJQsqaUBKTNV-0" />
        <mxCell id="i8cQ7rT61mAgKqFYYorA-0" value="" style="rounded=0;whiteSpace=wrap;html=1;" parent="WIyWlLk6GJQsqaUBKTNV-1" vertex="1">
          <mxGeometry x="-200" width="1300" height="550" as="geometry" />
        </mxCell>
        <mxCell id="mlW40ke2sfDv3it6fJe4-19" style="edgeStyle=orthogonalEdgeStyle;rounded=0;orthogonalLoop=1;jettySize=auto;html=1;endArrow=classic;endFill=1;" parent="WIyWlLk6GJQsqaUBKTNV-1" source="mlW40ke2sfDv3it6fJe4-0" target="mlW40ke2sfDv3it6fJe4-15" edge="1">
          <mxGeometry relative="1" as="geometry" />
        </mxCell>
        <mxCell id="mlW40ke2sfDv3it6fJe4-34" style="rounded=0;orthogonalLoop=1;jettySize=auto;html=1;startArrow=diamond;startFill=1;endArrow=none;endFill=0;" parent="WIyWlLk6GJQsqaUBKTNV-1" source="mlW40ke2sfDv3it6fJe4-0" target="mlW40ke2sfDv3it6fJe4-30" edge="1">
          <mxGeometry relative="1" as="geometry" />
        </mxCell>
        <mxCell id="kvBeb9Sq8FiOZc7AMm16-5" value="parts" style="edgeLabel;html=1;align=center;verticalAlign=middle;resizable=0;points=[];" parent="mlW40ke2sfDv3it6fJe4-34" vertex="1" connectable="0">
          <mxGeometry x="0.5093" y="3" relative="1" as="geometry">
            <mxPoint x="45" y="20" as="offset" />
          </mxGeometry>
        </mxCell>
        <mxCell id="mlW40ke2sfDv3it6fJe4-0" value="hardware" style="swimlane;fontStyle=0;childLayout=stackLayout;horizontal=1;startSize=26;fillColor=none;horizontalStack=0;resizeParent=1;resizeParentMax=0;resizeLast=0;collapsible=1;marginBottom=0;whiteSpace=wrap;html=1;" parent="WIyWlLk6GJQsqaUBKTNV-1" vertex="1">
          <mxGeometry x="310" y="170" width="140" height="78" as="geometry">
            <mxRectangle x="310" y="190" width="100" height="30" as="alternateBounds" />
          </mxGeometry>
        </mxCell>
        <mxCell id="mlW40ke2sfDv3it6fJe4-1" value="name" style="text;strokeColor=none;fillColor=none;align=left;verticalAlign=top;spacingLeft=4;spacingRight=4;overflow=hidden;rotatable=0;points=[[0,0.5],[1,0.5]];portConstraint=eastwest;whiteSpace=wrap;html=1;" parent="mlW40ke2sfDv3it6fJe4-0" vertex="1">
          <mxGeometry y="26" width="140" height="26" as="geometry" />
        </mxCell>
        <mxCell id="mlW40ke2sfDv3it6fJe4-2" value="information" style="text;strokeColor=none;fillColor=none;align=left;verticalAlign=top;spacingLeft=4;spacingRight=4;overflow=hidden;rotatable=0;points=[[0,0.5],[1,0.5]];portConstraint=eastwest;whiteSpace=wrap;html=1;" parent="mlW40ke2sfDv3it6fJe4-0" vertex="1">
          <mxGeometry y="52" width="140" height="26" as="geometry" />
        </mxCell>
        <mxCell id="mlW40ke2sfDv3it6fJe4-4" value="hardware_information" style="swimlane;fontStyle=0;childLayout=stackLayout;horizontal=1;startSize=36;fillColor=none;horizontalStack=0;resizeParent=1;resizeParentMax=0;resizeLast=0;collapsible=1;marginBottom=0;whiteSpace=wrap;html=1;" parent="WIyWlLk6GJQsqaUBKTNV-1" vertex="1">
          <mxGeometry x="50" y="170" width="140" height="88" as="geometry" />
        </mxCell>
        <mxCell id="mlW40ke2sfDv3it6fJe4-5" value="field" style="text;strokeColor=none;fillColor=none;align=left;verticalAlign=top;spacingLeft=4;spacingRight=4;overflow=hidden;rotatable=0;points=[[0,0.5],[1,0.5]];portConstraint=eastwest;whiteSpace=wrap;html=1;" parent="mlW40ke2sfDv3it6fJe4-4" vertex="1">
          <mxGeometry y="36" width="140" height="26" as="geometry" />
        </mxCell>
        <mxCell id="mlW40ke2sfDv3it6fJe4-6" value="value" style="text;strokeColor=none;fillColor=none;align=left;verticalAlign=top;spacingLeft=4;spacingRight=4;overflow=hidden;rotatable=0;points=[[0,0.5],[1,0.5]];portConstraint=eastwest;whiteSpace=wrap;html=1;" parent="mlW40ke2sfDv3it6fJe4-4" vertex="1">
          <mxGeometry y="62" width="140" height="26" as="geometry" />
        </mxCell>
        <mxCell id="mlW40ke2sfDv3it6fJe4-8" style="rounded=0;orthogonalLoop=1;jettySize=auto;html=1;exitX=0;exitY=0.5;exitDx=0;exitDy=0;startArrow=diamond;startFill=1;endArrow=none;endFill=0;" parent="WIyWlLk6GJQsqaUBKTNV-1" source="mlW40ke2sfDv3it6fJe4-2" target="mlW40ke2sfDv3it6fJe4-4" edge="1">
          <mxGeometry relative="1" as="geometry" />
        </mxCell>
        <mxCell id="kvBeb9Sq8FiOZc7AMm16-0" value="hardware_r" style="edgeLabel;html=1;align=center;verticalAlign=middle;resizable=0;points=[];" parent="mlW40ke2sfDv3it6fJe4-8" vertex="1" connectable="0">
          <mxGeometry x="-0.1311" y="-1" relative="1" as="geometry">
            <mxPoint x="22" y="-9" as="offset" />
          </mxGeometry>
        </mxCell>
        <mxCell id="kvBeb9Sq8FiOZc7AMm16-1" value="info" style="edgeLabel;html=1;align=center;verticalAlign=middle;resizable=0;points=[];" parent="mlW40ke2sfDv3it6fJe4-8" vertex="1" connectable="0">
          <mxGeometry x="0.6849" y="-1" relative="1" as="geometry">
            <mxPoint x="-6" y="-11" as="offset" />
          </mxGeometry>
        </mxCell>
        <mxCell id="mlW40ke2sfDv3it6fJe4-52" value="Информация, внесенная&lt;br&gt;разработчиком" style="edgeStyle=orthogonalEdgeStyle;rounded=0;orthogonalLoop=1;jettySize=auto;html=1;" parent="WIyWlLk6GJQsqaUBKTNV-1" source="mlW40ke2sfDv3it6fJe4-10" target="mlW40ke2sfDv3it6fJe4-4" edge="1">
          <mxGeometry relative="1" as="geometry">
            <Array as="points">
              <mxPoint x="-30" y="270" />
              <mxPoint x="-30" y="380" />
              <mxPoint x="140" y="380" />
            </Array>
            <mxPoint as="offset" />
          </mxGeometry>
        </mxCell>
        <mxCell id="mlW40ke2sfDv3it6fJe4-10" value="information_type&lt;br&gt;&amp;lt;&amp;lt;enum&amp;gt;&amp;gt;" style="swimlane;fontStyle=0;childLayout=stackLayout;horizontal=1;startSize=40;fillColor=none;horizontalStack=0;resizeParent=1;resizeParentMax=0;resizeLast=0;collapsible=1;marginBottom=0;whiteSpace=wrap;html=1;" parent="WIyWlLk6GJQsqaUBKTNV-1" vertex="1">
          <mxGeometry x="-190" y="170" width="140" height="118" as="geometry" />
        </mxCell>
        <mxCell id="mlW40ke2sfDv3it6fJe4-11" value="manufacturer_info" style="text;strokeColor=none;fillColor=none;align=left;verticalAlign=top;spacingLeft=4;spacingRight=4;overflow=hidden;rotatable=0;points=[[0,0.5],[1,0.5]];portConstraint=eastwest;whiteSpace=wrap;html=1;" parent="mlW40ke2sfDv3it6fJe4-10" vertex="1">
          <mxGeometry y="40" width="140" height="26" as="geometry" />
        </mxCell>
        <mxCell id="mlW40ke2sfDv3it6fJe4-12" value="manufacturer_link" style="text;strokeColor=none;fillColor=none;align=left;verticalAlign=top;spacingLeft=4;spacingRight=4;overflow=hidden;rotatable=0;points=[[0,0.5],[1,0.5]];portConstraint=eastwest;whiteSpace=wrap;html=1;" parent="mlW40ke2sfDv3it6fJe4-10" vertex="1">
          <mxGeometry y="66" width="140" height="26" as="geometry" />
        </mxCell>
        <mxCell id="mlW40ke2sfDv3it6fJe4-13" value="...&lt;br&gt;" style="text;strokeColor=none;fillColor=none;align=left;verticalAlign=top;spacingLeft=4;spacingRight=4;overflow=hidden;rotatable=0;points=[[0,0.5],[1,0.5]];portConstraint=eastwest;whiteSpace=wrap;html=1;" parent="mlW40ke2sfDv3it6fJe4-10" vertex="1">
          <mxGeometry y="92" width="140" height="26" as="geometry" />
        </mxCell>
        <mxCell id="mlW40ke2sfDv3it6fJe4-14" style="rounded=0;orthogonalLoop=1;jettySize=auto;html=1;exitX=0;exitY=0.5;exitDx=0;exitDy=0;endArrow=classic;endFill=1;" parent="WIyWlLk6GJQsqaUBKTNV-1" source="mlW40ke2sfDv3it6fJe4-5" target="mlW40ke2sfDv3it6fJe4-10" edge="1">
          <mxGeometry relative="1" as="geometry" />
        </mxCell>
        <mxCell id="mlW40ke2sfDv3it6fJe4-15" value="hardware_type&lt;br&gt;&amp;lt;&amp;lt;enum&amp;gt;&amp;gt;" style="swimlane;fontStyle=0;childLayout=stackLayout;horizontal=1;startSize=26;fillColor=none;horizontalStack=0;resizeParent=1;resizeParentMax=0;resizeLast=0;collapsible=1;marginBottom=0;whiteSpace=wrap;html=1;" parent="WIyWlLk6GJQsqaUBKTNV-1" vertex="1">
          <mxGeometry x="310" y="20" width="140" height="104" as="geometry" />
        </mxCell>
        <mxCell id="mlW40ke2sfDv3it6fJe4-16" value="CPU" style="text;strokeColor=none;fillColor=none;align=left;verticalAlign=top;spacingLeft=4;spacingRight=4;overflow=hidden;rotatable=0;points=[[0,0.5],[1,0.5]];portConstraint=eastwest;whiteSpace=wrap;html=1;" parent="mlW40ke2sfDv3it6fJe4-15" vertex="1">
          <mxGeometry y="26" width="140" height="26" as="geometry" />
        </mxCell>
        <mxCell id="mlW40ke2sfDv3it6fJe4-17" value="GPU" style="text;strokeColor=none;fillColor=none;align=left;verticalAlign=top;spacingLeft=4;spacingRight=4;overflow=hidden;rotatable=0;points=[[0,0.5],[1,0.5]];portConstraint=eastwest;whiteSpace=wrap;html=1;" parent="mlW40ke2sfDv3it6fJe4-15" vertex="1">
          <mxGeometry y="52" width="140" height="26" as="geometry" />
        </mxCell>
        <mxCell id="mlW40ke2sfDv3it6fJe4-18" value="..." style="text;strokeColor=none;fillColor=none;align=left;verticalAlign=top;spacingLeft=4;spacingRight=4;overflow=hidden;rotatable=0;points=[[0,0.5],[1,0.5]];portConstraint=eastwest;whiteSpace=wrap;html=1;" parent="mlW40ke2sfDv3it6fJe4-15" vertex="1">
          <mxGeometry y="78" width="140" height="26" as="geometry" />
        </mxCell>
        <mxCell id="mlW40ke2sfDv3it6fJe4-29" style="edgeStyle=orthogonalEdgeStyle;rounded=0;orthogonalLoop=1;jettySize=auto;html=1;endArrow=classic;endFill=1;" parent="WIyWlLk6GJQsqaUBKTNV-1" source="mlW40ke2sfDv3it6fJe4-20" target="mlW40ke2sfDv3it6fJe4-25" edge="1">
          <mxGeometry relative="1" as="geometry" />
        </mxCell>
        <mxCell id="mlW40ke2sfDv3it6fJe4-45" style="rounded=0;orthogonalLoop=1;jettySize=auto;html=1;startArrow=diamond;startFill=1;endArrow=none;endFill=0;" parent="WIyWlLk6GJQsqaUBKTNV-1" source="mlW40ke2sfDv3it6fJe4-20" target="mlW40ke2sfDv3it6fJe4-40" edge="1">
          <mxGeometry relative="1" as="geometry" />
        </mxCell>
        <mxCell id="kvBeb9Sq8FiOZc7AMm16-7" value="values" style="edgeLabel;html=1;align=center;verticalAlign=middle;resizable=0;points=[];" parent="mlW40ke2sfDv3it6fJe4-45" vertex="1" connectable="0">
          <mxGeometry x="-0.5548" y="-1" relative="1" as="geometry">
            <mxPoint x="188" y="1" as="offset" />
          </mxGeometry>
        </mxCell>
        <mxCell id="mlW40ke2sfDv3it6fJe4-20" value="sensor" style="swimlane;fontStyle=0;childLayout=stackLayout;horizontal=1;startSize=26;fillColor=none;horizontalStack=0;resizeParent=1;resizeParentMax=0;resizeLast=0;collapsible=1;marginBottom=0;whiteSpace=wrap;html=1;" parent="WIyWlLk6GJQsqaUBKTNV-1" vertex="1">
          <mxGeometry x="540" y="170" width="140" height="70" as="geometry" />
        </mxCell>
        <mxCell id="mlW40ke2sfDv3it6fJe4-21" value="limit_values (extend)" style="text;strokeColor=none;fillColor=none;align=left;verticalAlign=top;spacingLeft=4;spacingRight=4;overflow=hidden;rotatable=0;points=[[0,0.5],[1,0.5]];portConstraint=eastwest;whiteSpace=wrap;html=1;" parent="mlW40ke2sfDv3it6fJe4-20" vertex="1">
          <mxGeometry y="26" width="140" height="44" as="geometry" />
        </mxCell>
        <mxCell id="mlW40ke2sfDv3it6fJe4-24" style="rounded=0;orthogonalLoop=1;jettySize=auto;html=1;startArrow=diamond;startFill=1;endArrow=none;endFill=0;" parent="WIyWlLk6GJQsqaUBKTNV-1" source="mlW40ke2sfDv3it6fJe4-1" target="mlW40ke2sfDv3it6fJe4-20" edge="1">
          <mxGeometry relative="1" as="geometry" />
        </mxCell>
        <mxCell id="kvBeb9Sq8FiOZc7AMm16-3" value="sensors" style="edgeLabel;html=1;align=center;verticalAlign=middle;resizable=0;points=[];" parent="mlW40ke2sfDv3it6fJe4-24" vertex="1" connectable="0">
          <mxGeometry x="0.2884" y="-1" relative="1" as="geometry">
            <mxPoint x="8" y="7" as="offset" />
          </mxGeometry>
        </mxCell>
        <mxCell id="mlW40ke2sfDv3it6fJe4-25" value="sensor_type&lt;br&gt;&amp;lt;&amp;lt;enum&amp;gt;&amp;gt;" style="swimlane;fontStyle=0;childLayout=stackLayout;horizontal=1;startSize=26;fillColor=none;horizontalStack=0;resizeParent=1;resizeParentMax=0;resizeLast=0;collapsible=1;marginBottom=0;whiteSpace=wrap;html=1;" parent="WIyWlLk6GJQsqaUBKTNV-1" vertex="1">
          <mxGeometry x="540" y="20" width="140" height="104" as="geometry" />
        </mxCell>
        <mxCell id="mlW40ke2sfDv3it6fJe4-26" value="temperature" style="text;strokeColor=none;fillColor=none;align=left;verticalAlign=top;spacingLeft=4;spacingRight=4;overflow=hidden;rotatable=0;points=[[0,0.5],[1,0.5]];portConstraint=eastwest;whiteSpace=wrap;html=1;" parent="mlW40ke2sfDv3it6fJe4-25" vertex="1">
          <mxGeometry y="26" width="140" height="26" as="geometry" />
        </mxCell>
        <mxCell id="mlW40ke2sfDv3it6fJe4-27" value="load" style="text;strokeColor=none;fillColor=none;align=left;verticalAlign=top;spacingLeft=4;spacingRight=4;overflow=hidden;rotatable=0;points=[[0,0.5],[1,0.5]];portConstraint=eastwest;whiteSpace=wrap;html=1;" parent="mlW40ke2sfDv3it6fJe4-25" vertex="1">
          <mxGeometry y="52" width="140" height="26" as="geometry" />
        </mxCell>
        <mxCell id="mlW40ke2sfDv3it6fJe4-28" value="..." style="text;strokeColor=none;fillColor=none;align=left;verticalAlign=top;spacingLeft=4;spacingRight=4;overflow=hidden;rotatable=0;points=[[0,0.5],[1,0.5]];portConstraint=eastwest;whiteSpace=wrap;html=1;" parent="mlW40ke2sfDv3it6fJe4-25" vertex="1">
          <mxGeometry y="78" width="140" height="26" as="geometry" />
        </mxCell>
        <mxCell id="mlW40ke2sfDv3it6fJe4-30" value="hardware_part" style="swimlane;fontStyle=0;childLayout=stackLayout;horizontal=1;startSize=26;fillColor=none;horizontalStack=0;resizeParent=1;resizeParentMax=0;resizeLast=0;collapsible=1;marginBottom=0;whiteSpace=wrap;html=1;" parent="WIyWlLk6GJQsqaUBKTNV-1" vertex="1">
          <mxGeometry x="550" y="370" width="140" height="52" as="geometry" />
        </mxCell>
        <mxCell id="mlW40ke2sfDv3it6fJe4-31" value="name" style="text;strokeColor=none;fillColor=none;align=left;verticalAlign=top;spacingLeft=4;spacingRight=4;overflow=hidden;rotatable=0;points=[[0,0.5],[1,0.5]];portConstraint=eastwest;whiteSpace=wrap;html=1;" parent="mlW40ke2sfDv3it6fJe4-30" vertex="1">
          <mxGeometry y="26" width="140" height="26" as="geometry" />
        </mxCell>
        <mxCell id="mlW40ke2sfDv3it6fJe4-35" value="hardware_part_type&lt;br&gt;&amp;lt;&amp;lt;enum&amp;gt;&amp;gt;" style="swimlane;fontStyle=0;childLayout=stackLayout;horizontal=1;startSize=26;fillColor=none;horizontalStack=0;resizeParent=1;resizeParentMax=0;resizeLast=0;collapsible=1;marginBottom=0;whiteSpace=wrap;html=1;" parent="WIyWlLk6GJQsqaUBKTNV-1" vertex="1">
          <mxGeometry x="780" y="370" width="140" height="104" as="geometry" />
        </mxCell>
        <mxCell id="mlW40ke2sfDv3it6fJe4-36" value="core" style="text;strokeColor=none;fillColor=none;align=left;verticalAlign=top;spacingLeft=4;spacingRight=4;overflow=hidden;rotatable=0;points=[[0,0.5],[1,0.5]];portConstraint=eastwest;whiteSpace=wrap;html=1;" parent="mlW40ke2sfDv3it6fJe4-35" vertex="1">
          <mxGeometry y="26" width="140" height="26" as="geometry" />
        </mxCell>
        <mxCell id="mlW40ke2sfDv3it6fJe4-37" value="memory" style="text;strokeColor=none;fillColor=none;align=left;verticalAlign=top;spacingLeft=4;spacingRight=4;overflow=hidden;rotatable=0;points=[[0,0.5],[1,0.5]];portConstraint=eastwest;whiteSpace=wrap;html=1;" parent="mlW40ke2sfDv3it6fJe4-35" vertex="1">
          <mxGeometry y="52" width="140" height="26" as="geometry" />
        </mxCell>
        <mxCell id="mlW40ke2sfDv3it6fJe4-38" value="..." style="text;strokeColor=none;fillColor=none;align=left;verticalAlign=top;spacingLeft=4;spacingRight=4;overflow=hidden;rotatable=0;points=[[0,0.5],[1,0.5]];portConstraint=eastwest;whiteSpace=wrap;html=1;" parent="mlW40ke2sfDv3it6fJe4-35" vertex="1">
          <mxGeometry y="78" width="140" height="26" as="geometry" />
        </mxCell>
        <mxCell id="mlW40ke2sfDv3it6fJe4-39" style="rounded=0;orthogonalLoop=1;jettySize=auto;html=1;endArrow=classic;endFill=1;" parent="WIyWlLk6GJQsqaUBKTNV-1" source="mlW40ke2sfDv3it6fJe4-31" target="mlW40ke2sfDv3it6fJe4-35" edge="1">
          <mxGeometry relative="1" as="geometry" />
        </mxCell>
        <mxCell id="mlW40ke2sfDv3it6fJe4-40" value="sensor_value" style="swimlane;fontStyle=0;childLayout=stackLayout;horizontal=1;startSize=26;fillColor=none;horizontalStack=0;resizeParent=1;resizeParentMax=0;resizeLast=0;collapsible=1;marginBottom=0;whiteSpace=wrap;html=1;" parent="WIyWlLk6GJQsqaUBKTNV-1" vertex="1">
          <mxGeometry x="950" y="170" width="140" height="130" as="geometry">
            <mxRectangle x="950" y="170" width="150" height="30" as="alternateBounds" />
          </mxGeometry>
        </mxCell>
        <mxCell id="mlW40ke2sfDv3it6fJe4-41" value="hardware_type" style="text;strokeColor=none;fillColor=none;align=left;verticalAlign=top;spacingLeft=4;spacingRight=4;overflow=hidden;rotatable=0;points=[[0,0.5],[1,0.5]];portConstraint=eastwest;whiteSpace=wrap;html=1;" parent="mlW40ke2sfDv3it6fJe4-40" vertex="1">
          <mxGeometry y="26" width="140" height="26" as="geometry" />
        </mxCell>
        <mxCell id="mlW40ke2sfDv3it6fJe4-42" value="sensor_type" style="text;strokeColor=none;fillColor=none;align=left;verticalAlign=top;spacingLeft=4;spacingRight=4;overflow=hidden;rotatable=0;points=[[0,0.5],[1,0.5]];portConstraint=eastwest;whiteSpace=wrap;html=1;" parent="mlW40ke2sfDv3it6fJe4-40" vertex="1">
          <mxGeometry y="52" width="140" height="26" as="geometry" />
        </mxCell>
        <mxCell id="mlW40ke2sfDv3it6fJe4-43" value="time" style="text;strokeColor=none;fillColor=none;align=left;verticalAlign=top;spacingLeft=4;spacingRight=4;overflow=hidden;rotatable=0;points=[[0,0.5],[1,0.5]];portConstraint=eastwest;whiteSpace=wrap;html=1;" parent="mlW40ke2sfDv3it6fJe4-40" vertex="1">
          <mxGeometry y="78" width="140" height="26" as="geometry" />
        </mxCell>
        <mxCell id="mlW40ke2sfDv3it6fJe4-44" value="value" style="text;strokeColor=none;fillColor=none;align=left;verticalAlign=top;spacingLeft=4;spacingRight=4;overflow=hidden;rotatable=0;points=[[0,0.5],[1,0.5]];portConstraint=eastwest;whiteSpace=wrap;html=1;" parent="mlW40ke2sfDv3it6fJe4-40" vertex="1">
          <mxGeometry y="104" width="140" height="26" as="geometry" />
        </mxCell>
        <mxCell id="mlW40ke2sfDv3it6fJe4-47" style="edgeStyle=orthogonalEdgeStyle;rounded=0;orthogonalLoop=1;jettySize=auto;html=1;endArrow=none;endFill=0;" parent="WIyWlLk6GJQsqaUBKTNV-1" source="mlW40ke2sfDv3it6fJe4-46" target="mlW40ke2sfDv3it6fJe4-40" edge="1">
          <mxGeometry relative="1" as="geometry" />
        </mxCell>
        <mxCell id="mlW40ke2sfDv3it6fJe4-46" value="Построить графики" style="ellipse;whiteSpace=wrap;html=1;fillColor=#fff2cc;strokeColor=#d6b656;" parent="WIyWlLk6GJQsqaUBKTNV-1" vertex="1">
          <mxGeometry x="960" y="358" width="120" height="80" as="geometry" />
        </mxCell>
        <mxCell id="mlW40ke2sfDv3it6fJe4-50" style="rounded=0;orthogonalLoop=1;jettySize=auto;html=1;endArrow=none;endFill=0;" parent="WIyWlLk6GJQsqaUBKTNV-1" source="mlW40ke2sfDv3it6fJe4-48" target="mlW40ke2sfDv3it6fJe4-40" edge="1">
          <mxGeometry relative="1" as="geometry" />
        </mxCell>
        <mxCell id="mlW40ke2sfDv3it6fJe4-48" value="Найти отклонения&lt;br&gt;(extend)" style="ellipse;whiteSpace=wrap;html=1;fillColor=#fff2cc;strokeColor=#d6b656;" parent="WIyWlLk6GJQsqaUBKTNV-1" vertex="1">
          <mxGeometry x="730" y="248" width="120" height="80" as="geometry" />
        </mxCell>
        <mxCell id="mlW40ke2sfDv3it6fJe4-49" style="rounded=0;orthogonalLoop=1;jettySize=auto;html=1;endArrow=none;endFill=0;" parent="WIyWlLk6GJQsqaUBKTNV-1" source="mlW40ke2sfDv3it6fJe4-21" target="mlW40ke2sfDv3it6fJe4-48" edge="1">
          <mxGeometry relative="1" as="geometry" />
        </mxCell>
        <mxCell id="mlW40ke2sfDv3it6fJe4-51" value="Информация, полученная&lt;br&gt;через ОС" style="edgeStyle=orthogonalEdgeStyle;rounded=0;orthogonalLoop=1;jettySize=auto;html=1;" parent="WIyWlLk6GJQsqaUBKTNV-1" source="mlW40ke2sfDv3it6fJe4-2" target="mlW40ke2sfDv3it6fJe4-4" edge="1">
          <mxGeometry x="-0.1932" relative="1" as="geometry">
            <Array as="points">
              <mxPoint x="380" y="330" />
              <mxPoint x="250" y="330" />
              <mxPoint x="250" y="250" />
            </Array>
            <mxPoint as="offset" />
          </mxGeometry>
        </mxCell>
        <mxCell id="mlW40ke2sfDv3it6fJe4-54" style="rounded=0;orthogonalLoop=1;jettySize=auto;html=1;endArrow=none;endFill=0;" parent="WIyWlLk6GJQsqaUBKTNV-1" source="mlW40ke2sfDv3it6fJe4-53" edge="1">
          <mxGeometry relative="1" as="geometry">
            <mxPoint x="50" y="400" as="targetPoint" />
          </mxGeometry>
        </mxCell>
        <mxCell id="mlW40ke2sfDv3it6fJe4-53" value="Заполнить информацию о комплектующих" style="ellipse;whiteSpace=wrap;html=1;fillColor=#fff2cc;strokeColor=#d6b656;" parent="WIyWlLk6GJQsqaUBKTNV-1" vertex="1">
          <mxGeometry x="-10" y="460" width="120" height="80" as="geometry" />
        </mxCell>
        <mxCell id="kvBeb9Sq8FiOZc7AMm16-2" value="hardware_r" style="edgeLabel;html=1;align=center;verticalAlign=middle;resizable=0;points=[];" parent="WIyWlLk6GJQsqaUBKTNV-1" vertex="1" connectable="0">
          <mxGeometry x="480.004594350478" y="194.00347093592777" as="geometry">
            <mxPoint x="1" y="2" as="offset" />
          </mxGeometry>
        </mxCell>
        <mxCell id="kvBeb9Sq8FiOZc7AMm16-4" value="&lt;meta charset=&quot;utf-8&quot;&gt;&lt;table style=&quot;caret-color: rgb(0, 0, 0); color: rgb(0, 0, 0); font-style: normal; font-variant-caps: normal; font-weight: 400; letter-spacing: normal; text-align: start; text-transform: none; word-spacing: 0px; -webkit-text-stroke-width: 0px; text-decoration: none; border-collapse: collapse;&quot; cellpadding=&quot;0&quot; cellspacing=&quot;0&quot;&gt;&lt;tbody&gt;&lt;tr&gt;&lt;td style=&quot;width: 107px; height: 11px; background-color: rgb(204, 204, 204); border-style: solid; border-width: 1px; border-color: rgb(0, 0, 0); padding: 4px;&quot; valign=&quot;top&quot;&gt;&lt;p style=&quot;margin: 0px; text-align: center;&quot; align=&quot;center&quot;&gt;&lt;font style=&quot;font-style: normal; font-variant-caps: normal; font-weight: normal; font-stretch: normal; font-size: 10px; line-height: normal; font-family: &amp;quot;Helvetica Neue&amp;quot;; font-size-adjust: none; font-kerning: auto; font-variant-alternates: normal; font-variant-numeric: normal; font-variant-east-asian: normal; font-variant-position: normal; font-feature-settings: normal; font-optical-sizing: auto; font-variation-settings: normal; font-variant-ligatures: common-ligatures; color: rgb(0, 0, 0);&quot; color=&quot;#000000&quot; size=&quot;2&quot; face=&quot;Helvetica Neue&quot;&gt;&lt;b&gt;Сущность&lt;/b&gt;&lt;/font&gt;&lt;/p&gt;&lt;/td&gt;&lt;td style=&quot;width: 89px; height: 11px; background-color: rgb(204, 204, 204); border-style: solid; border-width: 1px; border-color: rgb(0, 0, 0); padding: 4px;&quot; valign=&quot;top&quot;&gt;&lt;p style=&quot;margin: 0px; text-align: center;&quot; align=&quot;center&quot;&gt;&lt;font style=&quot;font-style: normal; font-variant-caps: normal; font-weight: normal; font-stretch: normal; font-size: 10px; line-height: normal; font-family: &amp;quot;Helvetica Neue&amp;quot;; font-size-adjust: none; font-kerning: auto; font-variant-alternates: normal; font-variant-numeric: normal; font-variant-east-asian: normal; font-variant-position: normal; font-feature-settings: normal; font-optical-sizing: auto; font-variation-settings: normal; font-variant-ligatures: common-ligatures; color: rgb(0, 0, 0);&quot; color=&quot;#000000&quot; size=&quot;2&quot; face=&quot;Helvetica Neue&quot;&gt;&lt;b&gt;Ключ&lt;/b&gt;&lt;/font&gt;&lt;/p&gt;&lt;/td&gt;&lt;td style=&quot;width: 89px; height: 11px; background-color: rgb(204, 204, 204); border-style: solid; border-width: 1px; border-color: rgb(0, 0, 0); padding: 4px;&quot; valign=&quot;top&quot;&gt;&lt;p style=&quot;margin: 0px; text-align: center;&quot; align=&quot;center&quot;&gt;&lt;font style=&quot;font-style: normal; font-variant-caps: normal; font-weight: normal; font-stretch: normal; font-size: 10px; line-height: normal; font-family: &amp;quot;Helvetica Neue&amp;quot;; font-size-adjust: none; font-kerning: auto; font-variant-alternates: normal; font-variant-numeric: normal; font-variant-east-asian: normal; font-variant-position: normal; font-feature-settings: normal; font-optical-sizing: auto; font-variation-settings: normal; font-variant-ligatures: common-ligatures; color: rgb(0, 0, 0);&quot; color=&quot;#000000&quot; size=&quot;2&quot; face=&quot;Helvetica Neue&quot;&gt;&lt;b&gt;Атрибут&lt;/b&gt;&lt;/font&gt;&lt;/p&gt;&lt;/td&gt;&lt;td style=&quot;width: 89px; height: 11px; background-color: rgb(204, 204, 204); border-style: solid; border-width: 1px; border-color: rgb(0, 0, 0); padding: 4px;&quot; valign=&quot;top&quot;&gt;&lt;p style=&quot;margin: 0px; text-align: center;&quot; align=&quot;center&quot;&gt;&lt;font style=&quot;font-style: normal; font-variant-caps: normal; font-weight: normal; font-stretch: normal; font-size: 10px; line-height: normal; font-family: &amp;quot;Helvetica Neue&amp;quot;; font-size-adjust: none; font-kerning: auto; font-variant-alternates: normal; font-variant-numeric: normal; font-variant-east-asian: normal; font-variant-position: normal; font-feature-settings: normal; font-optical-sizing: auto; font-variation-settings: normal; font-variant-ligatures: common-ligatures; color: rgb(0, 0, 0);&quot; color=&quot;#000000&quot; size=&quot;2&quot; face=&quot;Helvetica Neue&quot;&gt;&lt;b&gt;Обязательность&lt;/b&gt;&lt;/font&gt;&lt;/p&gt;&lt;/td&gt;&lt;td style=&quot;width: 109px; height: 11px; background-color: rgb(204, 204, 204); border-style: solid; border-width: 1px; border-color: rgb(0, 0, 0); padding: 4px;&quot; valign=&quot;top&quot;&gt;&lt;p style=&quot;margin: 0px; text-align: center;&quot; align=&quot;center&quot;&gt;&lt;font style=&quot;font-style: normal; font-variant-caps: normal; font-weight: normal; font-stretch: normal; font-size: 10px; line-height: normal; font-family: &amp;quot;Helvetica Neue&amp;quot;; font-size-adjust: none; font-kerning: auto; font-variant-alternates: normal; font-variant-numeric: normal; font-variant-east-asian: normal; font-variant-position: normal; font-feature-settings: normal; font-optical-sizing: auto; font-variation-settings: normal; font-variant-ligatures: common-ligatures; color: rgb(0, 0, 0);&quot; color=&quot;#000000&quot; size=&quot;2&quot; face=&quot;Helvetica Neue&quot;&gt;&lt;b&gt;Тип&lt;/b&gt;&lt;/font&gt;&lt;/p&gt;&lt;/td&gt;&lt;td style=&quot;width: 89px; height: 11px; background-color: rgb(204, 204, 204); border-style: solid; border-width: 1px; border-color: rgb(0, 0, 0); padding: 4px;&quot; valign=&quot;top&quot;&gt;&lt;p style=&quot;margin: 0px; text-align: center;&quot; align=&quot;center&quot;&gt;&lt;font style=&quot;font-style: normal; font-variant-caps: normal; font-weight: normal; font-stretch: normal; font-size: 10px; line-height: normal; font-family: &amp;quot;Helvetica Neue&amp;quot;; font-size-adjust: none; font-kerning: auto; font-variant-alternates: normal; font-variant-numeric: normal; font-variant-east-asian: normal; font-variant-position: normal; font-feature-settings: normal; font-optical-sizing: auto; font-variation-settings: normal; font-variant-ligatures: common-ligatures; color: rgb(0, 0, 0);&quot; color=&quot;#000000&quot; size=&quot;2&quot; face=&quot;Helvetica Neue&quot;&gt;&lt;b&gt;Отношение&lt;/b&gt;&lt;/font&gt;&lt;/p&gt;&lt;/td&gt;&lt;td style=&quot;width: 168px; height: 11px; background-color: rgb(204, 204, 204); border-style: solid; border-width: 1px; border-color: rgb(0, 0, 0); padding: 4px;&quot; valign=&quot;top&quot;&gt;&lt;p style=&quot;margin: 0px; text-align: center;&quot; align=&quot;center&quot;&gt;&lt;font style=&quot;font-style: normal; font-variant-caps: normal; font-weight: normal; font-stretch: normal; font-size: 10px; line-height: normal; font-family: &amp;quot;Helvetica Neue&amp;quot;; font-size-adjust: none; font-kerning: auto; font-variant-alternates: normal; font-variant-numeric: normal; font-variant-east-asian: normal; font-variant-position: normal; font-feature-settings: normal; font-optical-sizing: auto; font-variation-settings: normal; font-variant-ligatures: common-ligatures; color: rgb(0, 0, 0);&quot; color=&quot;#000000&quot; size=&quot;2&quot; face=&quot;Helvetica Neue&quot;&gt;&lt;b&gt;Описание&lt;/b&gt;&lt;/font&gt;&lt;/p&gt;&lt;/td&gt;&lt;/tr&gt;&lt;tr&gt;&lt;td style=&quot;width: 107px; height: 23px; background-color: rgb(255, 255, 255); border-style: solid; border-width: 1px; border-color: rgb(0, 0, 0); padding: 4px;&quot; valign=&quot;top&quot;&gt;&lt;p style=&quot;margin: 0px;&quot;&gt;&lt;font style=&quot;font-style: normal; font-variant-caps: normal; font-weight: normal; font-stretch: normal; font-size: 10px; line-height: normal; font-family: &amp;quot;Helvetica Neue&amp;quot;; font-size-adjust: none; font-kerning: auto; font-variant-alternates: normal; font-variant-numeric: normal; font-variant-east-asian: normal; font-variant-position: normal; font-feature-settings: normal; font-optical-sizing: auto; font-variation-settings: normal; font-variant-ligatures: common-ligatures; color: rgb(0, 0, 0);&quot; color=&quot;#000000&quot; size=&quot;2&quot; face=&quot;Helvetica Neue&quot;&gt;hardware&lt;/font&gt;&lt;/p&gt;&lt;/td&gt;&lt;td style=&quot;width: 89px; height: 23px; background-color: rgb(255, 255, 255); border-style: solid; border-width: 1px; border-color: rgb(0, 0, 0); padding: 4px;&quot; valign=&quot;top&quot;&gt;&lt;p style=&quot;margin: 0px;&quot;&gt;&lt;font style=&quot;font-style: normal; font-variant-caps: normal; font-weight: normal; font-stretch: normal; font-size: 10px; line-height: normal; font-family: &amp;quot;Helvetica Neue&amp;quot;; font-size-adjust: none; font-kerning: auto; font-variant-alternates: normal; font-variant-numeric: normal; font-variant-east-asian: normal; font-variant-position: normal; font-feature-settings: normal; font-optical-sizing: auto; font-variation-settings: normal; font-variant-ligatures: common-ligatures; color: rgb(0, 0, 0);&quot; color=&quot;#000000&quot; size=&quot;2&quot; face=&quot;Helvetica Neue&quot;&gt;+&lt;/font&gt;&lt;/p&gt;&lt;/td&gt;&lt;td style=&quot;width: 89px; height: 23px; background-color: rgb(255, 255, 255); border-style: solid; border-width: 1px; border-color: rgb(0, 0, 0); padding: 4px;&quot; valign=&quot;top&quot;&gt;&lt;p style=&quot;margin: 0px;&quot;&gt;&lt;font style=&quot;font-style: normal; font-variant-caps: normal; font-weight: normal; font-stretch: normal; font-size: 10px; line-height: normal; font-family: &amp;quot;Helvetica Neue&amp;quot;; font-size-adjust: none; font-kerning: auto; font-variant-alternates: normal; font-variant-numeric: normal; font-variant-east-asian: normal; font-variant-position: normal; font-feature-settings: normal; font-optical-sizing: auto; font-variation-settings: normal; font-variant-ligatures: common-ligatures; color: rgb(0, 0, 0);&quot; color=&quot;#000000&quot; size=&quot;2&quot; face=&quot;Helvetica Neue&quot;&gt;name&lt;/font&gt;&lt;/p&gt;&lt;/td&gt;&lt;td style=&quot;width: 89px; height: 23px; background-color: rgb(255, 255, 255); border-style: solid; border-width: 1px; border-color: rgb(0, 0, 0); padding: 4px;&quot; valign=&quot;top&quot;&gt;&lt;p style=&quot;margin: 0px;&quot;&gt;&lt;font style=&quot;font-style: normal; font-variant-caps: normal; font-weight: normal; font-stretch: normal; font-size: 10px; line-height: normal; font-family: &amp;quot;Helvetica Neue&amp;quot;; font-size-adjust: none; font-kerning: auto; font-variant-alternates: normal; font-variant-numeric: normal; font-variant-east-asian: normal; font-variant-position: normal; font-feature-settings: normal; font-optical-sizing: auto; font-variation-settings: normal; font-variant-ligatures: common-ligatures; color: rgb(0, 0, 0);&quot; color=&quot;#000000&quot; size=&quot;2&quot; face=&quot;Helvetica Neue&quot;&gt;+&lt;/font&gt;&lt;/p&gt;&lt;/td&gt;&lt;td style=&quot;width: 109px; height: 23px; background-color: rgb(255, 255, 255); border-style: solid; border-width: 1px; border-color: rgb(0, 0, 0); padding: 4px;&quot; valign=&quot;top&quot;&gt;&lt;p style=&quot;margin: 0px;&quot;&gt;&lt;font style=&quot;font-style: normal; font-variant-caps: normal; font-weight: normal; font-stretch: normal; font-size: 10px; line-height: normal; font-family: &amp;quot;Helvetica Neue&amp;quot;; font-size-adjust: none; font-kerning: auto; font-variant-alternates: normal; font-variant-numeric: normal; font-variant-east-asian: normal; font-variant-position: normal; font-feature-settings: normal; font-optical-sizing: auto; font-variation-settings: normal; font-variant-ligatures: common-ligatures; color: rgb(0, 0, 0);&quot; color=&quot;#000000&quot; size=&quot;2&quot; face=&quot;Helvetica Neue&quot;&gt;String&lt;/font&gt;&lt;/p&gt;&lt;/td&gt;&lt;td style=&quot;width: 89px; height: 23px; background-color: rgb(255, 255, 255); border-style: solid; border-width: 1px; border-color: rgb(0, 0, 0); padding: 4px;&quot; valign=&quot;top&quot;&gt;&lt;p style=&quot;margin: 0px; font-style: normal; font-variant-caps: normal; font-weight: normal; font-stretch: normal; font-size: 12px; line-height: normal; font-family: Helvetica; font-size-adjust: none; font-kerning: auto; font-variant-alternates: normal; font-variant-ligatures: normal; font-variant-numeric: normal; font-variant-east-asian: normal; font-variant-position: normal; font-feature-settings: normal; font-optical-sizing: auto; font-variation-settings: normal; min-height: 14px;&quot;&gt;&lt;br&gt;&lt;/p&gt;&lt;/td&gt;&lt;td style=&quot;width: 168px; height: 23px; background-color: rgb(255, 255, 255); border-style: solid; border-width: 1px; border-color: rgb(0, 0, 0); padding: 4px;&quot; valign=&quot;top&quot;&gt;&lt;p style=&quot;margin: 0px;&quot;&gt;&lt;font style=&quot;font-style: normal; font-variant-caps: normal; font-weight: normal; font-stretch: normal; font-size: 10px; line-height: normal; font-family: &amp;quot;Helvetica Neue&amp;quot;; font-size-adjust: none; font-kerning: auto; font-variant-alternates: normal; font-variant-numeric: normal; font-variant-east-asian: normal; font-variant-position: normal; font-feature-settings: normal; font-optical-sizing: auto; font-variation-settings: normal; font-variant-ligatures: common-ligatures; color: rgb(0, 0, 0);&quot; color=&quot;#000000&quot; size=&quot;2&quot; face=&quot;Helvetica Neue&quot;&gt;Наименование каждого компонента системы&lt;/font&gt;&lt;/p&gt;&lt;/td&gt;&lt;/tr&gt;&lt;tr&gt;&lt;td style=&quot;width: 107px; height: 23px; background-color: rgb(255, 255, 255); border-style: solid; border-width: 1px; border-color: rgb(0, 0, 0); padding: 4px;&quot; valign=&quot;top&quot;&gt;&lt;p style=&quot;margin: 0px;&quot;&gt;&lt;font style=&quot;font-style: normal; font-variant-caps: normal; font-weight: normal; font-stretch: normal; font-size: 10px; line-height: normal; font-family: &amp;quot;Helvetica Neue&amp;quot;; font-size-adjust: none; font-kerning: auto; font-variant-alternates: normal; font-variant-numeric: normal; font-variant-east-asian: normal; font-variant-position: normal; font-feature-settings: normal; font-optical-sizing: auto; font-variation-settings: normal; font-variant-ligatures: common-ligatures; color: rgb(0, 0, 0);&quot; color=&quot;#000000&quot; size=&quot;2&quot; face=&quot;Helvetica Neue&quot;&gt;hardware&lt;/font&gt;&lt;/p&gt;&lt;/td&gt;&lt;td style=&quot;width: 89px; height: 23px; background-color: rgb(255, 255, 255); border-style: solid; border-width: 1px; border-color: rgb(0, 0, 0); padding: 4px;&quot; valign=&quot;top&quot;&gt;&lt;p style=&quot;margin: 0px; font-style: normal; font-variant-caps: normal; font-weight: normal; font-stretch: normal; font-size: 12px; line-height: normal; font-family: Helvetica; font-size-adjust: none; font-kerning: auto; font-variant-alternates: normal; font-variant-ligatures: normal; font-variant-numeric: normal; font-variant-east-asian: normal; font-variant-position: normal; font-feature-settings: normal; font-optical-sizing: auto; font-variation-settings: normal; min-height: 14px;&quot;&gt;&lt;br&gt;&lt;/p&gt;&lt;/td&gt;&lt;td style=&quot;width: 89px; height: 23px; background-color: rgb(255, 255, 255); border-style: solid; border-width: 1px; border-color: rgb(0, 0, 0); padding: 4px;&quot; valign=&quot;top&quot;&gt;&lt;p style=&quot;margin: 0px;&quot;&gt;&lt;font style=&quot;font-style: normal; font-variant-caps: normal; font-weight: normal; font-stretch: normal; font-size: 10px; line-height: normal; font-family: &amp;quot;Helvetica Neue&amp;quot;; font-size-adjust: none; font-kerning: auto; font-variant-alternates: normal; font-variant-numeric: normal; font-variant-east-asian: normal; font-variant-position: normal; font-feature-settings: normal; font-optical-sizing: auto; font-variation-settings: normal; font-variant-ligatures: common-ligatures; color: rgb(0, 0, 0);&quot; color=&quot;#000000&quot; size=&quot;2&quot; face=&quot;Helvetica Neue&quot;&gt;information&lt;/font&gt;&lt;/p&gt;&lt;/td&gt;&lt;td style=&quot;width: 89px; height: 23px; background-color: rgb(255, 255, 255); border-style: solid; border-width: 1px; border-color: rgb(0, 0, 0); padding: 4px;&quot; valign=&quot;top&quot;&gt;&lt;p style=&quot;margin: 0px;&quot;&gt;&lt;font style=&quot;font-style: normal; font-variant-caps: normal; font-weight: normal; font-stretch: normal; font-size: 10px; line-height: normal; font-family: &amp;quot;Helvetica Neue&amp;quot;; font-size-adjust: none; font-kerning: auto; font-variant-alternates: normal; font-variant-numeric: normal; font-variant-east-asian: normal; font-variant-position: normal; font-feature-settings: normal; font-optical-sizing: auto; font-variation-settings: normal; font-variant-ligatures: common-ligatures; color: rgb(0, 0, 0);&quot; color=&quot;#000000&quot; size=&quot;2&quot; face=&quot;Helvetica Neue&quot;&gt;+&lt;/font&gt;&lt;/p&gt;&lt;/td&gt;&lt;td style=&quot;width: 109px; height: 23px; background-color: rgb(255, 255, 255); border-style: solid; border-width: 1px; border-color: rgb(0, 0, 0); padding: 4px;&quot; valign=&quot;top&quot;&gt;&lt;p style=&quot;margin: 0px;&quot;&gt;&lt;font style=&quot;font-style: normal; font-variant-caps: normal; font-weight: normal; font-stretch: normal; font-size: 10px; line-height: normal; font-family: &amp;quot;Helvetica Neue&amp;quot;; font-size-adjust: none; font-kerning: auto; font-variant-alternates: normal; font-variant-numeric: normal; font-variant-east-asian: normal; font-variant-position: normal; font-feature-settings: normal; font-optical-sizing: auto; font-variation-settings: normal; font-variant-ligatures: common-ligatures; color: rgb(0, 0, 0);&quot; color=&quot;#000000&quot; size=&quot;2&quot; face=&quot;Helvetica Neue&quot;&gt;String&lt;/font&gt;&lt;/p&gt;&lt;/td&gt;&lt;td style=&quot;width: 89px; height: 23px; background-color: rgb(255, 255, 255); border-style: solid; border-width: 1px; border-color: rgb(0, 0, 0); padding: 4px;&quot; valign=&quot;top&quot;&gt;&lt;p style=&quot;margin: 0px; font-style: normal; font-variant-caps: normal; font-weight: normal; font-stretch: normal; font-size: 12px; line-height: normal; font-family: Helvetica; font-size-adjust: none; font-kerning: auto; font-variant-alternates: normal; font-variant-ligatures: normal; font-variant-numeric: normal; font-variant-east-asian: normal; font-variant-position: normal; font-feature-settings: normal; font-optical-sizing: auto; font-variation-settings: normal; min-height: 14px;&quot;&gt;&lt;br&gt;&lt;/p&gt;&lt;/td&gt;&lt;td style=&quot;width: 168px; height: 23px; background-color: rgb(255, 255, 255); border-style: solid; border-width: 1px; border-color: rgb(0, 0, 0); padding: 4px;&quot; valign=&quot;top&quot;&gt;&lt;p style=&quot;margin: 0px;&quot;&gt;&lt;font style=&quot;font-style: normal; font-variant-caps: normal; font-weight: normal; font-stretch: normal; font-size: 10px; line-height: normal; font-family: &amp;quot;Helvetica Neue&amp;quot;; font-size-adjust: none; font-kerning: auto; font-variant-alternates: normal; font-variant-numeric: normal; font-variant-east-asian: normal; font-variant-position: normal; font-feature-settings: normal; font-optical-sizing: auto; font-variation-settings: normal; font-variant-ligatures: common-ligatures; color: rgb(0, 0, 0);&quot; color=&quot;#000000&quot; size=&quot;2&quot; face=&quot;Helvetica Neue&quot;&gt;Информация о каждом компоненте системы&lt;/font&gt;&lt;/p&gt;&lt;/td&gt;&lt;/tr&gt;&lt;tr&gt;&lt;td style=&quot;width: 107px; height: 11px; background-color: rgb(128, 127, 127); border-style: solid; border-width: 1px; border-color: rgb(0, 0, 0); padding: 4px;&quot; valign=&quot;top&quot;&gt;&lt;p style=&quot;margin: 0px;&quot;&gt;&lt;font style=&quot;font-style: normal; font-variant-caps: normal; font-weight: normal; font-stretch: normal; font-size: 10px; line-height: normal; font-family: &amp;quot;Helvetica Neue&amp;quot;; font-size-adjust: none; font-kerning: auto; font-variant-alternates: normal; font-variant-numeric: normal; font-variant-east-asian: normal; font-variant-position: normal; font-feature-settings: normal; font-optical-sizing: auto; font-variation-settings: normal; font-variant-ligatures: common-ligatures; color: rgb(0, 0, 0);&quot; color=&quot;#000000&quot; size=&quot;2&quot; face=&quot;Helvetica Neue&quot;&gt;hardware&lt;/font&gt;&lt;/p&gt;&lt;/td&gt;&lt;td style=&quot;width: 89px; height: 11px; background-color: rgb(128, 127, 127); border-style: solid; border-width: 1px; border-color: rgb(0, 0, 0); padding: 4px;&quot; valign=&quot;top&quot;&gt;&lt;p style=&quot;margin: 0px; font-style: normal; font-variant-caps: normal; font-weight: normal; font-stretch: normal; font-size: 12px; line-height: normal; font-family: Helvetica; font-size-adjust: none; font-kerning: auto; font-variant-alternates: normal; font-variant-ligatures: normal; font-variant-numeric: normal; font-variant-east-asian: normal; font-variant-position: normal; font-feature-settings: normal; font-optical-sizing: auto; font-variation-settings: normal; min-height: 14px;&quot;&gt;&lt;br&gt;&lt;/p&gt;&lt;/td&gt;&lt;td style=&quot;width: 89px; height: 11px; background-color: rgb(128, 127, 127); border-style: solid; border-width: 1px; border-color: rgb(0, 0, 0); padding: 4px;&quot; valign=&quot;top&quot;&gt;&lt;p style=&quot;margin: 0px;&quot;&gt;&lt;font style=&quot;font-style: normal; font-variant-caps: normal; font-weight: normal; font-stretch: normal; font-size: 10px; line-height: normal; font-family: &amp;quot;Helvetica Neue&amp;quot;; font-size-adjust: none; font-kerning: auto; font-variant-alternates: normal; font-variant-numeric: normal; font-variant-east-asian: normal; font-variant-position: normal; font-feature-settings: normal; font-optical-sizing: auto; font-variation-settings: normal; font-variant-ligatures: common-ligatures; color: rgb(0, 0, 0);&quot; color=&quot;#000000&quot; size=&quot;2&quot; face=&quot;Helvetica Neue&quot;&gt;info&lt;/font&gt;&lt;/p&gt;&lt;/td&gt;&lt;td style=&quot;width: 89px; height: 11px; background-color: rgb(128, 127, 127); border-style: solid; border-width: 1px; border-color: rgb(0, 0, 0); padding: 4px;&quot; valign=&quot;top&quot;&gt;&lt;p style=&quot;margin: 0px;&quot;&gt;&lt;font style=&quot;font-style: normal; font-variant-caps: normal; font-weight: normal; font-stretch: normal; font-size: 10px; line-height: normal; font-family: &amp;quot;Helvetica Neue&amp;quot;; font-size-adjust: none; font-kerning: auto; font-variant-alternates: normal; font-variant-numeric: normal; font-variant-east-asian: normal; font-variant-position: normal; font-feature-settings: normal; font-optical-sizing: auto; font-variation-settings: normal; font-variant-ligatures: common-ligatures; color: rgb(0, 0, 0);&quot; color=&quot;#000000&quot; size=&quot;2&quot; face=&quot;Helvetica Neue&quot;&gt;+&lt;/font&gt;&lt;/p&gt;&lt;/td&gt;&lt;td style=&quot;width: 109px; height: 11px; background-color: rgb(128, 127, 127); border-style: solid; border-width: 1px; border-color: rgb(0, 0, 0); padding: 4px;&quot; valign=&quot;top&quot;&gt;&lt;p style=&quot;margin: 0px;&quot;&gt;&lt;font style=&quot;font-style: normal; font-variant-caps: normal; font-weight: normal; font-stretch: normal; font-size: 10px; line-height: normal; font-family: &amp;quot;Helvetica Neue&amp;quot;; font-size-adjust: none; font-kerning: auto; font-variant-alternates: normal; font-variant-numeric: normal; font-variant-east-asian: normal; font-variant-position: normal; font-feature-settings: normal; font-optical-sizing: auto; font-variation-settings: normal; font-variant-ligatures: common-ligatures; color: rgb(0, 0, 0);&quot; color=&quot;#000000&quot; size=&quot;2&quot; face=&quot;Helvetica Neue&quot;&gt;hardware_information[ ]&lt;/font&gt;&lt;/p&gt;&lt;/td&gt;&lt;td style=&quot;width: 89px; height: 11px; background-color: rgb(128, 127, 127); border-style: solid; border-width: 1px; border-color: rgb(0, 0, 0); padding: 4px;&quot; valign=&quot;top&quot;&gt;&lt;p style=&quot;margin: 0px;&quot;&gt;&lt;font style=&quot;font-style: normal; font-variant-caps: normal; font-weight: normal; font-stretch: normal; font-size: 10px; line-height: normal; font-family: &amp;quot;Helvetica Neue&amp;quot;; font-size-adjust: none; font-kerning: auto; font-variant-alternates: normal; font-variant-numeric: normal; font-variant-east-asian: normal; font-variant-position: normal; font-feature-settings: normal; font-optical-sizing: auto; font-variation-settings: normal; font-variant-ligatures: common-ligatures; color: rgb(0, 0, 0);&quot; color=&quot;#000000&quot; size=&quot;2&quot; face=&quot;Helvetica Neue&quot;&gt;1..*&lt;/font&gt;&lt;/p&gt;&lt;/td&gt;&lt;td style=&quot;width: 168px; height: 11px; background-color: rgb(128, 127, 127); border-style: solid; border-width: 1px; border-color: rgb(0, 0, 0); padding: 4px;&quot; valign=&quot;top&quot;&gt;&lt;p style=&quot;margin: 0px; font-style: normal; font-variant-caps: normal; font-weight: normal; font-stretch: normal; font-size: 12px; line-height: normal; font-family: Helvetica; font-size-adjust: none; font-kerning: auto; font-variant-alternates: normal; font-variant-ligatures: normal; font-variant-numeric: normal; font-variant-east-asian: normal; font-variant-position: normal; font-feature-settings: normal; font-optical-sizing: auto; font-variation-settings: normal; min-height: 14px;&quot;&gt;&lt;br&gt;&lt;/p&gt;&lt;/td&gt;&lt;/tr&gt;&lt;tr&gt;&lt;td style=&quot;width: 107px; height: 11px; background-color: rgb(128, 127, 127); border-style: solid; border-width: 1px; border-color: rgb(0, 0, 0); padding: 4px;&quot; valign=&quot;top&quot;&gt;&lt;p style=&quot;margin: 0px;&quot;&gt;&lt;font style=&quot;font-style: normal; font-variant-caps: normal; font-weight: normal; font-stretch: normal; font-size: 10px; line-height: normal; font-family: &amp;quot;Helvetica Neue&amp;quot;; font-size-adjust: none; font-kerning: auto; font-variant-alternates: normal; font-variant-numeric: normal; font-variant-east-asian: normal; font-variant-position: normal; font-feature-settings: normal; font-optical-sizing: auto; font-variation-settings: normal; font-variant-ligatures: common-ligatures; color: rgb(0, 0, 0);&quot; color=&quot;#000000&quot; size=&quot;2&quot; face=&quot;Helvetica Neue&quot;&gt;hardware&lt;/font&gt;&lt;/p&gt;&lt;/td&gt;&lt;td style=&quot;width: 89px; height: 11px; background-color: rgb(128, 127, 127); border-style: solid; border-width: 1px; border-color: rgb(0, 0, 0); padding: 4px;&quot; valign=&quot;top&quot;&gt;&lt;p style=&quot;margin: 0px; font-style: normal; font-variant-caps: normal; font-weight: normal; font-stretch: normal; font-size: 12px; line-height: normal; font-family: Helvetica; font-size-adjust: none; font-kerning: auto; font-variant-alternates: normal; font-variant-ligatures: normal; font-variant-numeric: normal; font-variant-east-asian: normal; font-variant-position: normal; font-feature-settings: normal; font-optical-sizing: auto; font-variation-settings: normal; min-height: 14px;&quot;&gt;&lt;br&gt;&lt;/p&gt;&lt;/td&gt;&lt;td style=&quot;width: 89px; height: 11px; background-color: rgb(128, 127, 127); border-style: solid; border-width: 1px; border-color: rgb(0, 0, 0); padding: 4px;&quot; valign=&quot;top&quot;&gt;&lt;p style=&quot;margin: 0px;&quot;&gt;&lt;font style=&quot;font-style: normal; font-variant-caps: normal; font-weight: normal; font-stretch: normal; font-size: 10px; line-height: normal; font-family: &amp;quot;Helvetica Neue&amp;quot;; font-size-adjust: none; font-kerning: auto; font-variant-alternates: normal; font-variant-numeric: normal; font-variant-east-asian: normal; font-variant-position: normal; font-feature-settings: normal; font-optical-sizing: auto; font-variation-settings: normal; font-variant-ligatures: common-ligatures; color: rgb(0, 0, 0);&quot; color=&quot;#000000&quot; size=&quot;2&quot; face=&quot;Helvetica Neue&quot;&gt;sensors&lt;/font&gt;&lt;/p&gt;&lt;/td&gt;&lt;td style=&quot;width: 89px; height: 11px; background-color: rgb(128, 127, 127); border-style: solid; border-width: 1px; border-color: rgb(0, 0, 0); padding: 4px;&quot; valign=&quot;top&quot;&gt;&lt;p style=&quot;margin: 0px;&quot;&gt;&lt;font style=&quot;font-style: normal; font-variant-caps: normal; font-weight: normal; font-stretch: normal; font-size: 10px; line-height: normal; font-family: &amp;quot;Helvetica Neue&amp;quot;; font-size-adjust: none; font-kerning: auto; font-variant-alternates: normal; font-variant-numeric: normal; font-variant-east-asian: normal; font-variant-position: normal; font-feature-settings: normal; font-optical-sizing: auto; font-variation-settings: normal; font-variant-ligatures: common-ligatures; color: rgb(0, 0, 0);&quot; color=&quot;#000000&quot; size=&quot;2&quot; face=&quot;Helvetica Neue&quot;&gt;+&lt;/font&gt;&lt;/p&gt;&lt;/td&gt;&lt;td style=&quot;width: 109px; height: 11px; background-color: rgb(128, 127, 127); border-style: solid; border-width: 1px; border-color: rgb(0, 0, 0); padding: 4px;&quot; valign=&quot;top&quot;&gt;&lt;p style=&quot;margin: 0px;&quot;&gt;&lt;font style=&quot;font-style: normal; font-variant-caps: normal; font-weight: normal; font-stretch: normal; font-size: 10px; line-height: normal; font-family: &amp;quot;Helvetica Neue&amp;quot;; font-size-adjust: none; font-kerning: auto; font-variant-alternates: normal; font-variant-numeric: normal; font-variant-east-asian: normal; font-variant-position: normal; font-feature-settings: normal; font-optical-sizing: auto; font-variation-settings: normal; font-variant-ligatures: common-ligatures; color: rgb(0, 0, 0);&quot; color=&quot;#000000&quot; size=&quot;2&quot; face=&quot;Helvetica Neue&quot;&gt;sensor[ ]&lt;/font&gt;&lt;/p&gt;&lt;/td&gt;&lt;td style=&quot;width: 89px; height: 11px; background-color: rgb(128, 127, 127); border-style: solid; border-width: 1px; border-color: rgb(0, 0, 0); padding: 4px;&quot; valign=&quot;top&quot;&gt;&lt;p style=&quot;margin: 0px;&quot;&gt;&lt;font style=&quot;font-style: normal; font-variant-caps: normal; font-weight: normal; font-stretch: normal; font-size: 10px; line-height: normal; font-family: &amp;quot;Helvetica Neue&amp;quot;; font-size-adjust: none; font-kerning: auto; font-variant-alternates: normal; font-variant-numeric: normal; font-variant-east-asian: normal; font-variant-position: normal; font-feature-settings: normal; font-optical-sizing: auto; font-variation-settings: normal; font-variant-ligatures: common-ligatures; color: rgb(0, 0, 0);&quot; color=&quot;#000000&quot; size=&quot;2&quot; face=&quot;Helvetica Neue&quot;&gt;1..*&lt;/font&gt;&lt;/p&gt;&lt;/td&gt;&lt;td style=&quot;width: 168px; height: 11px; background-color: rgb(128, 127, 127); border-style: solid; border-width: 1px; border-color: rgb(0, 0, 0); padding: 4px;&quot; valign=&quot;top&quot;&gt;&lt;p style=&quot;margin: 0px; font-style: normal; font-variant-caps: normal; font-weight: normal; font-stretch: normal; font-size: 12px; line-height: normal; font-family: Helvetica; font-size-adjust: none; font-kerning: auto; font-variant-alternates: normal; font-variant-ligatures: normal; font-variant-numeric: normal; font-variant-east-asian: normal; font-variant-position: normal; font-feature-settings: normal; font-optical-sizing: auto; font-variation-settings: normal; min-height: 14px;&quot;&gt;&lt;br&gt;&lt;/p&gt;&lt;/td&gt;&lt;/tr&gt;&lt;tr&gt;&lt;td style=&quot;width: 107px; height: 11px; background-color: rgb(128, 127, 127); border-style: solid; border-width: 1px; border-color: rgb(0, 0, 0); padding: 4px;&quot; valign=&quot;top&quot;&gt;&lt;p style=&quot;margin: 0px;&quot;&gt;&lt;font style=&quot;font-style: normal; font-variant-caps: normal; font-weight: normal; font-stretch: normal; font-size: 10px; line-height: normal; font-family: &amp;quot;Helvetica Neue&amp;quot;; font-size-adjust: none; font-kerning: auto; font-variant-alternates: normal; font-variant-numeric: normal; font-variant-east-asian: normal; font-variant-position: normal; font-feature-settings: normal; font-optical-sizing: auto; font-variation-settings: normal; font-variant-ligatures: common-ligatures; color: rgb(0, 0, 0);&quot; color=&quot;#000000&quot; size=&quot;2&quot; face=&quot;Helvetica Neue&quot;&gt;hardware&lt;/font&gt;&lt;/p&gt;&lt;/td&gt;&lt;td style=&quot;width: 89px; height: 11px; background-color: rgb(128, 127, 127); border-style: solid; border-width: 1px; border-color: rgb(0, 0, 0); padding: 4px;&quot; valign=&quot;top&quot;&gt;&lt;p style=&quot;margin: 0px; font-style: normal; font-variant-caps: normal; font-weight: normal; font-stretch: normal; font-size: 12px; line-height: normal; font-family: Helvetica; font-size-adjust: none; font-kerning: auto; font-variant-alternates: normal; font-variant-ligatures: normal; font-variant-numeric: normal; font-variant-east-asian: normal; font-variant-position: normal; font-feature-settings: normal; font-optical-sizing: auto; font-variation-settings: normal; min-height: 14px;&quot;&gt;&lt;br&gt;&lt;/p&gt;&lt;/td&gt;&lt;td style=&quot;width: 89px; height: 11px; background-color: rgb(128, 127, 127); border-style: solid; border-width: 1px; border-color: rgb(0, 0, 0); padding: 4px;&quot; valign=&quot;top&quot;&gt;&lt;p style=&quot;margin: 0px;&quot;&gt;&lt;font style=&quot;font-style: normal; font-variant-caps: normal; font-weight: normal; font-stretch: normal; font-size: 10px; line-height: normal; font-family: &amp;quot;Helvetica Neue&amp;quot;; font-size-adjust: none; font-kerning: auto; font-variant-alternates: normal; font-variant-numeric: normal; font-variant-east-asian: normal; font-variant-position: normal; font-feature-settings: normal; font-optical-sizing: auto; font-variation-settings: normal; font-variant-ligatures: common-ligatures; color: rgb(0, 0, 0);&quot; color=&quot;#000000&quot; size=&quot;2&quot; face=&quot;Helvetica Neue&quot;&gt;parts&lt;/font&gt;&lt;/p&gt;&lt;/td&gt;&lt;td style=&quot;width: 89px; height: 11px; background-color: rgb(128, 127, 127); border-style: solid; border-width: 1px; border-color: rgb(0, 0, 0); padding: 4px;&quot; valign=&quot;top&quot;&gt;&lt;p style=&quot;margin: 0px;&quot;&gt;&lt;font style=&quot;font-style: normal; font-variant-caps: normal; font-weight: normal; font-stretch: normal; font-size: 10px; line-height: normal; font-family: &amp;quot;Helvetica Neue&amp;quot;; font-size-adjust: none; font-kerning: auto; font-variant-alternates: normal; font-variant-numeric: normal; font-variant-east-asian: normal; font-variant-position: normal; font-feature-settings: normal; font-optical-sizing: auto; font-variation-settings: normal; font-variant-ligatures: common-ligatures; color: rgb(0, 0, 0);&quot; color=&quot;#000000&quot; size=&quot;2&quot; face=&quot;Helvetica Neue&quot;&gt;+&lt;/font&gt;&lt;/p&gt;&lt;/td&gt;&lt;td style=&quot;width: 109px; height: 11px; background-color: rgb(128, 127, 127); border-style: solid; border-width: 1px; border-color: rgb(0, 0, 0); padding: 4px;&quot; valign=&quot;top&quot;&gt;&lt;p style=&quot;margin: 0px;&quot;&gt;&lt;font style=&quot;font-style: normal; font-variant-caps: normal; font-weight: normal; font-stretch: normal; font-size: 10px; line-height: normal; font-family: &amp;quot;Helvetica Neue&amp;quot;; font-size-adjust: none; font-kerning: auto; font-variant-alternates: normal; font-variant-numeric: normal; font-variant-east-asian: normal; font-variant-position: normal; font-feature-settings: normal; font-optical-sizing: auto; font-variation-settings: normal; font-variant-ligatures: common-ligatures; color: rgb(0, 0, 0);&quot; color=&quot;#000000&quot; size=&quot;2&quot; face=&quot;Helvetica Neue&quot;&gt;hardware_parts[ ]&lt;/font&gt;&lt;/p&gt;&lt;/td&gt;&lt;td style=&quot;width: 89px; height: 11px; background-color: rgb(128, 127, 127); border-style: solid; border-width: 1px; border-color: rgb(0, 0, 0); padding: 4px;&quot; valign=&quot;top&quot;&gt;&lt;p style=&quot;margin: 0px;&quot;&gt;&lt;font style=&quot;font-style: normal; font-variant-caps: normal; font-weight: normal; font-stretch: normal; font-size: 10px; line-height: normal; font-family: &amp;quot;Helvetica Neue&amp;quot;; font-size-adjust: none; font-kerning: auto; font-variant-alternates: normal; font-variant-numeric: normal; font-variant-east-asian: normal; font-variant-position: normal; font-feature-settings: normal; font-optical-sizing: auto; font-variation-settings: normal; font-variant-ligatures: common-ligatures; color: rgb(0, 0, 0);&quot; color=&quot;#000000&quot; size=&quot;2&quot; face=&quot;Helvetica Neue&quot;&gt;1..*&lt;/font&gt;&lt;/p&gt;&lt;/td&gt;&lt;td style=&quot;width: 168px; height: 11px; background-color: rgb(128, 127, 127); border-style: solid; border-width: 1px; border-color: rgb(0, 0, 0); padding: 4px;&quot; valign=&quot;top&quot;&gt;&lt;p style=&quot;margin: 0px; font-style: normal; font-variant-caps: normal; font-weight: normal; font-stretch: normal; font-size: 12px; line-height: normal; font-family: Helvetica; font-size-adjust: none; font-kerning: auto; font-variant-alternates: normal; font-variant-ligatures: normal; font-variant-numeric: normal; font-variant-east-asian: normal; font-variant-position: normal; font-feature-settings: normal; font-optical-sizing: auto; font-variation-settings: normal; min-height: 14px;&quot;&gt;&lt;br&gt;&lt;/p&gt;&lt;/td&gt;&lt;/tr&gt;&lt;tr&gt;&lt;td style=&quot;width: 107px; height: 11px; background-color: rgb(255, 255, 255); border-style: solid; border-width: 1px; border-color: rgb(0, 0, 0); padding: 4px;&quot; valign=&quot;top&quot;&gt;&lt;p style=&quot;margin: 0px;&quot;&gt;&lt;font style=&quot;font-style: normal; font-variant-caps: normal; font-weight: normal; font-stretch: normal; font-size: 10px; line-height: normal; font-family: &amp;quot;Helvetica Neue&amp;quot;; font-size-adjust: none; font-kerning: auto; font-variant-alternates: normal; font-variant-numeric: normal; font-variant-east-asian: normal; font-variant-position: normal; font-feature-settings: normal; font-optical-sizing: auto; font-variation-settings: normal; font-variant-ligatures: common-ligatures; color: rgb(0, 0, 0);&quot; color=&quot;#000000&quot; size=&quot;2&quot; face=&quot;Helvetica Neue&quot;&gt;hardware_information&lt;/font&gt;&lt;/p&gt;&lt;/td&gt;&lt;td style=&quot;width: 89px; height: 11px; background-color: rgb(255, 255, 255); border-style: solid; border-width: 1px; border-color: rgb(0, 0, 0); padding: 4px;&quot; valign=&quot;top&quot;&gt;&lt;p style=&quot;margin: 0px;&quot;&gt;&lt;font style=&quot;font-style: normal; font-variant-caps: normal; font-weight: normal; font-stretch: normal; font-size: 10px; line-height: normal; font-family: &amp;quot;Helvetica Neue&amp;quot;; font-size-adjust: none; font-kerning: auto; font-variant-alternates: normal; font-variant-numeric: normal; font-variant-east-asian: normal; font-variant-position: normal; font-feature-settings: normal; font-optical-sizing: auto; font-variation-settings: normal; font-variant-ligatures: common-ligatures; color: rgb(0, 0, 0);&quot; color=&quot;#000000&quot; size=&quot;2&quot; face=&quot;Helvetica Neue&quot;&gt;+&lt;/font&gt;&lt;/p&gt;&lt;/td&gt;&lt;td style=&quot;width: 89px; height: 11px; background-color: rgb(255, 255, 255); border-style: solid; border-width: 1px; border-color: rgb(0, 0, 0); padding: 4px;&quot; valign=&quot;top&quot;&gt;&lt;p style=&quot;margin: 0px;&quot;&gt;&lt;font style=&quot;font-style: normal; font-variant-caps: normal; font-weight: normal; font-stretch: normal; font-size: 10px; line-height: normal; font-family: &amp;quot;Helvetica Neue&amp;quot;; font-size-adjust: none; font-kerning: auto; font-variant-alternates: normal; font-variant-numeric: normal; font-variant-east-asian: normal; font-variant-position: normal; font-feature-settings: normal; font-optical-sizing: auto; font-variation-settings: normal; font-variant-ligatures: common-ligatures; color: rgb(0, 0, 0);&quot; color=&quot;#000000&quot; size=&quot;2&quot; face=&quot;Helvetica Neue&quot;&gt;field&lt;/font&gt;&lt;/p&gt;&lt;/td&gt;&lt;td style=&quot;width: 89px; height: 11px; background-color: rgb(255, 255, 255); border-style: solid; border-width: 1px; border-color: rgb(0, 0, 0); padding: 4px;&quot; valign=&quot;top&quot;&gt;&lt;p style=&quot;margin: 0px;&quot;&gt;&lt;font style=&quot;font-style: normal; font-variant-caps: normal; font-weight: normal; font-stretch: normal; font-size: 10px; line-height: normal; font-family: &amp;quot;Helvetica Neue&amp;quot;; font-size-adjust: none; font-kerning: auto; font-variant-alternates: normal; font-variant-numeric: normal; font-variant-east-asian: normal; font-variant-position: normal; font-feature-settings: normal; font-optical-sizing: auto; font-variation-settings: normal; font-variant-ligatures: common-ligatures; color: rgb(0, 0, 0);&quot; color=&quot;#000000&quot; size=&quot;2&quot; face=&quot;Helvetica Neue&quot;&gt;+&lt;/font&gt;&lt;/p&gt;&lt;/td&gt;&lt;td style=&quot;width: 109px; height: 11px; background-color: rgb(255, 255, 255); border-style: solid; border-width: 1px; border-color: rgb(0, 0, 0); padding: 4px;&quot; valign=&quot;top&quot;&gt;&lt;p style=&quot;margin: 0px;&quot;&gt;&lt;font style=&quot;font-style: normal; font-variant-caps: normal; font-weight: normal; font-stretch: normal; font-size: 10px; line-height: normal; font-family: &amp;quot;Helvetica Neue&amp;quot;; font-size-adjust: none; font-kerning: auto; font-variant-alternates: normal; font-variant-numeric: normal; font-variant-east-asian: normal; font-variant-position: normal; font-feature-settings: normal; font-optical-sizing: auto; font-variation-settings: normal; font-variant-ligatures: common-ligatures; color: rgb(0, 0, 0);&quot; color=&quot;#000000&quot; size=&quot;2&quot; face=&quot;Helvetica Neue&quot;&gt;String&lt;/font&gt;&lt;/p&gt;&lt;/td&gt;&lt;td style=&quot;width: 89px; height: 11px; background-color: rgb(255, 255, 255); border-style: solid; border-width: 1px; border-color: rgb(0, 0, 0); padding: 4px;&quot; valign=&quot;top&quot;&gt;&lt;p style=&quot;margin: 0px; font-style: normal; font-variant-caps: normal; font-weight: normal; font-stretch: normal; font-size: 12px; line-height: normal; font-family: Helvetica; font-size-adjust: none; font-kerning: auto; font-variant-alternates: normal; font-variant-ligatures: normal; font-variant-numeric: normal; font-variant-east-asian: normal; font-variant-position: normal; font-feature-settings: normal; font-optical-sizing: auto; font-variation-settings: normal; min-height: 14px;&quot;&gt;&lt;br&gt;&lt;/p&gt;&lt;/td&gt;&lt;td style=&quot;width: 168px; height: 11px; background-color: rgb(255, 255, 255); border-style: solid; border-width: 1px; border-color: rgb(0, 0, 0); padding: 4px;&quot; valign=&quot;top&quot;&gt;&lt;p style=&quot;margin: 0px;&quot;&gt;&lt;font style=&quot;font-style: normal; font-variant-caps: normal; font-weight: normal; font-stretch: normal; font-size: 10px; line-height: normal; font-family: &amp;quot;Helvetica Neue&amp;quot;; font-size-adjust: none; font-kerning: auto; font-variant-alternates: normal; font-variant-numeric: normal; font-variant-east-asian: normal; font-variant-position: normal; font-feature-settings: normal; font-optical-sizing: auto; font-variation-settings: normal; font-variant-ligatures: common-ligatures; color: rgb(0, 0, 0);&quot; color=&quot;#000000&quot; size=&quot;2&quot; face=&quot;Helvetica Neue&quot;&gt;Тип информации о компоненте&lt;/font&gt;&lt;/p&gt;&lt;/td&gt;&lt;/tr&gt;&lt;tr&gt;&lt;td style=&quot;width: 107px; height: 24px; background-color: rgb(255, 255, 255); border-style: solid; border-width: 1px; border-color: rgb(0, 0, 0); padding: 4px;&quot; valign=&quot;top&quot;&gt;&lt;p style=&quot;margin: 0px;&quot;&gt;&lt;font style=&quot;font-style: normal; font-variant-caps: normal; font-weight: normal; font-stretch: normal; font-size: 10px; line-height: normal; font-family: &amp;quot;Helvetica Neue&amp;quot;; font-size-adjust: none; font-kerning: auto; font-variant-alternates: normal; font-variant-numeric: normal; font-variant-east-asian: normal; font-variant-position: normal; font-feature-settings: normal; font-optical-sizing: auto; font-variation-settings: normal; font-variant-ligatures: common-ligatures; color: rgb(0, 0, 0);&quot; color=&quot;#000000&quot; size=&quot;2&quot; face=&quot;Helvetica Neue&quot;&gt;hardware_information&lt;/font&gt;&lt;/p&gt;&lt;/td&gt;&lt;td style=&quot;width: 89px; height: 24px; background-color: rgb(255, 255, 255); border-style: solid; border-width: 1px; border-color: rgb(0, 0, 0); padding: 4px;&quot; valign=&quot;top&quot;&gt;&lt;p style=&quot;margin: 0px; font-style: normal; font-variant-caps: normal; font-weight: normal; font-stretch: normal; font-size: 12px; line-height: normal; font-family: Helvetica; font-size-adjust: none; font-kerning: auto; font-variant-alternates: normal; font-variant-ligatures: normal; font-variant-numeric: normal; font-variant-east-asian: normal; font-variant-position: normal; font-feature-settings: normal; font-optical-sizing: auto; font-variation-settings: normal; min-height: 14px;&quot;&gt;&lt;br&gt;&lt;/p&gt;&lt;/td&gt;&lt;td style=&quot;width: 89px; height: 24px; background-color: rgb(255, 255, 255); border-style: solid; border-width: 1px; border-color: rgb(0, 0, 0); padding: 4px;&quot; valign=&quot;top&quot;&gt;&lt;p style=&quot;margin: 0px;&quot;&gt;&lt;font style=&quot;font-style: normal; font-variant-caps: normal; font-weight: normal; font-stretch: normal; font-size: 10px; line-height: normal; font-family: &amp;quot;Helvetica Neue&amp;quot;; font-size-adjust: none; font-kerning: auto; font-variant-alternates: normal; font-variant-numeric: normal; font-variant-east-asian: normal; font-variant-position: normal; font-feature-settings: normal; font-optical-sizing: auto; font-variation-settings: normal; font-variant-ligatures: common-ligatures; color: rgb(0, 0, 0);&quot; color=&quot;#000000&quot; size=&quot;2&quot; face=&quot;Helvetica Neue&quot;&gt;value&lt;/font&gt;&lt;/p&gt;&lt;/td&gt;&lt;td style=&quot;width: 89px; height: 24px; background-color: rgb(255, 255, 255); border-style: solid; border-width: 1px; border-color: rgb(0, 0, 0); padding: 4px;&quot; valign=&quot;top&quot;&gt;&lt;p style=&quot;margin: 0px;&quot;&gt;&lt;font style=&quot;font-style: normal; font-variant-caps: normal; font-weight: normal; font-stretch: normal; font-size: 10px; line-height: normal; font-family: &amp;quot;Helvetica Neue&amp;quot;; font-size-adjust: none; font-kerning: auto; font-variant-alternates: normal; font-variant-numeric: normal; font-variant-east-asian: normal; font-variant-position: normal; font-feature-settings: normal; font-optical-sizing: auto; font-variation-settings: normal; font-variant-ligatures: common-ligatures; color: rgb(0, 0, 0);&quot; color=&quot;#000000&quot; size=&quot;2&quot; face=&quot;Helvetica Neue&quot;&gt;+&lt;/font&gt;&lt;/p&gt;&lt;/td&gt;&lt;td style=&quot;width: 109px; height: 24px; background-color: rgb(255, 255, 255); border-style: solid; border-width: 1px; border-color: rgb(0, 0, 0); padding: 4px;&quot; valign=&quot;top&quot;&gt;&lt;p style=&quot;margin: 0px;&quot;&gt;&lt;font style=&quot;font-style: normal; font-variant-caps: normal; font-weight: normal; font-stretch: normal; font-size: 10px; line-height: normal; font-family: &amp;quot;Helvetica Neue&amp;quot;; font-size-adjust: none; font-kerning: auto; font-variant-alternates: normal; font-variant-numeric: normal; font-variant-east-asian: normal; font-variant-position: normal; font-feature-settings: normal; font-optical-sizing: auto; font-variation-settings: normal; font-variant-ligatures: common-ligatures; color: rgb(0, 0, 0);&quot; color=&quot;#000000&quot; size=&quot;2&quot; face=&quot;Helvetica Neue&quot;&gt;String&lt;/font&gt;&lt;/p&gt;&lt;/td&gt;&lt;td style=&quot;width: 89px; height: 24px; background-color: rgb(255, 255, 255); border-style: solid; border-width: 1px; border-color: rgb(0, 0, 0); padding: 4px;&quot; valign=&quot;top&quot;&gt;&lt;p style=&quot;margin: 0px; font-style: normal; font-variant-caps: normal; font-weight: normal; font-stretch: normal; font-size: 12px; line-height: normal; font-family: Helvetica; font-size-adjust: none; font-kerning: auto; font-variant-alternates: normal; font-variant-ligatures: normal; font-variant-numeric: normal; font-variant-east-asian: normal; font-variant-position: normal; font-feature-settings: normal; font-optical-sizing: auto; font-variation-settings: normal; min-height: 14px;&quot;&gt;&lt;br&gt;&lt;/p&gt;&lt;/td&gt;&lt;td style=&quot;width: 168px; height: 24px; background-color: rgb(255, 255, 255); border-style: solid; border-width: 1px; border-color: rgb(0, 0, 0); padding: 4px;&quot; valign=&quot;top&quot;&gt;&lt;p style=&quot;margin: 0px;&quot;&gt;&lt;font style=&quot;font-style: normal; font-variant-caps: normal; font-weight: normal; font-stretch: normal; font-size: 10px; line-height: normal; font-family: &amp;quot;Helvetica Neue&amp;quot;; font-size-adjust: none; font-kerning: auto; font-variant-alternates: normal; font-variant-numeric: normal; font-variant-east-asian: normal; font-variant-position: normal; font-feature-settings: normal; font-optical-sizing: auto; font-variation-settings: normal; font-variant-ligatures: common-ligatures; color: rgb(0, 0, 0);&quot; color=&quot;#000000&quot; size=&quot;2&quot; face=&quot;Helvetica Neue&quot;&gt;Информация о компоненте из базы данных и ОС&lt;/font&gt;&lt;/p&gt;&lt;/td&gt;&lt;/tr&gt;&lt;tr&gt;&lt;td style=&quot;width: 107px; height: 11px; background-color: rgb(128, 127, 127); border-style: solid; border-width: 1px; border-color: rgb(0, 0, 0); padding: 4px;&quot; valign=&quot;top&quot;&gt;&lt;p style=&quot;margin: 0px;&quot;&gt;&lt;font style=&quot;font-style: normal; font-variant-caps: normal; font-weight: normal; font-stretch: normal; font-size: 10px; line-height: normal; font-family: &amp;quot;Helvetica Neue&amp;quot;; font-size-adjust: none; font-kerning: auto; font-variant-alternates: normal; font-variant-numeric: normal; font-variant-east-asian: normal; font-variant-position: normal; font-feature-settings: normal; font-optical-sizing: auto; font-variation-settings: normal; font-variant-ligatures: common-ligatures; color: rgb(0, 0, 0);&quot; color=&quot;#000000&quot; size=&quot;2&quot; face=&quot;Helvetica Neue&quot;&gt;hardware_information&lt;/font&gt;&lt;/p&gt;&lt;/td&gt;&lt;td style=&quot;width: 89px; height: 11px; background-color: rgb(128, 127, 127); border-style: solid; border-width: 1px; border-color: rgb(0, 0, 0); padding: 4px;&quot; valign=&quot;top&quot;&gt;&lt;p style=&quot;margin: 0px; font-style: normal; font-variant-caps: normal; font-weight: normal; font-stretch: normal; font-size: 12px; line-height: normal; font-family: Helvetica; font-size-adjust: none; font-kerning: auto; font-variant-alternates: normal; font-variant-ligatures: normal; font-variant-numeric: normal; font-variant-east-asian: normal; font-variant-position: normal; font-feature-settings: normal; font-optical-sizing: auto; font-variation-settings: normal; min-height: 14px;&quot;&gt;&lt;br&gt;&lt;/p&gt;&lt;/td&gt;&lt;td style=&quot;width: 89px; height: 11px; background-color: rgb(128, 127, 127); border-style: solid; border-width: 1px; border-color: rgb(0, 0, 0); padding: 4px;&quot; valign=&quot;top&quot;&gt;&lt;p style=&quot;margin: 0px;&quot;&gt;&lt;font style=&quot;font-style: normal; font-variant-caps: normal; font-weight: normal; font-stretch: normal; font-size: 10px; line-height: normal; font-family: &amp;quot;Helvetica Neue&amp;quot;; font-size-adjust: none; font-kerning: auto; font-variant-alternates: normal; font-variant-numeric: normal; font-variant-east-asian: normal; font-variant-position: normal; font-feature-settings: normal; font-optical-sizing: auto; font-variation-settings: normal; font-variant-ligatures: common-ligatures; color: rgb(0, 0, 0);&quot; color=&quot;#000000&quot; size=&quot;2&quot; face=&quot;Helvetica Neue&quot;&gt;hardware_r&lt;/font&gt;&lt;/p&gt;&lt;/td&gt;&lt;td style=&quot;width: 89px; height: 11px; background-color: rgb(128, 127, 127); border-style: solid; border-width: 1px; border-color: rgb(0, 0, 0); padding: 4px;&quot; valign=&quot;top&quot;&gt;&lt;p style=&quot;margin: 0px;&quot;&gt;&lt;font style=&quot;font-style: normal; font-variant-caps: normal; font-weight: normal; font-stretch: normal; font-size: 10px; line-height: normal; font-family: &amp;quot;Helvetica Neue&amp;quot;; font-size-adjust: none; font-kerning: auto; font-variant-alternates: normal; font-variant-numeric: normal; font-variant-east-asian: normal; font-variant-position: normal; font-feature-settings: normal; font-optical-sizing: auto; font-variation-settings: normal; font-variant-ligatures: common-ligatures; color: rgb(0, 0, 0);&quot; color=&quot;#000000&quot; size=&quot;2&quot; face=&quot;Helvetica Neue&quot;&gt;+&lt;/font&gt;&lt;/p&gt;&lt;/td&gt;&lt;td style=&quot;width: 109px; height: 11px; background-color: rgb(128, 127, 127); border-style: solid; border-width: 1px; border-color: rgb(0, 0, 0); padding: 4px;&quot; valign=&quot;top&quot;&gt;&lt;p style=&quot;margin: 0px;&quot;&gt;&lt;font style=&quot;font-style: normal; font-variant-caps: normal; font-weight: normal; font-stretch: normal; font-size: 10px; line-height: normal; font-family: &amp;quot;Helvetica Neue&amp;quot;; font-size-adjust: none; font-kerning: auto; font-variant-alternates: normal; font-variant-numeric: normal; font-variant-east-asian: normal; font-variant-position: normal; font-feature-settings: normal; font-optical-sizing: auto; font-variation-settings: normal; font-variant-ligatures: common-ligatures; color: rgb(0, 0, 0);&quot; color=&quot;#000000&quot; size=&quot;2&quot; face=&quot;Helvetica Neue&quot;&gt;hardware&lt;/font&gt;&lt;/p&gt;&lt;/td&gt;&lt;td style=&quot;width: 89px; height: 11px; background-color: rgb(128, 127, 127); border-style: solid; border-width: 1px; border-color: rgb(0, 0, 0); padding: 4px;&quot; valign=&quot;top&quot;&gt;&lt;p style=&quot;margin: 0px; font-style: normal; font-variant-caps: normal; font-weight: normal; font-stretch: normal; font-size: 12px; line-height: normal; font-family: Helvetica; font-size-adjust: none; font-kerning: auto; font-variant-alternates: normal; font-variant-ligatures: normal; font-variant-numeric: normal; font-variant-east-asian: normal; font-variant-position: normal; font-feature-settings: normal; font-optical-sizing: auto; font-variation-settings: normal; min-height: 14px;&quot;&gt;&lt;br&gt;&lt;/p&gt;&lt;/td&gt;&lt;td style=&quot;width: 168px; height: 11px; background-color: rgb(128, 127, 127); border-style: solid; border-width: 1px; border-color: rgb(0, 0, 0); padding: 4px;&quot; valign=&quot;top&quot;&gt;&lt;p style=&quot;margin: 0px; font-style: normal; font-variant-caps: normal; font-weight: normal; font-stretch: normal; font-size: 12px; line-height: normal; font-family: Helvetica; font-size-adjust: none; font-kerning: auto; font-variant-alternates: normal; font-variant-ligatures: normal; font-variant-numeric: normal; font-variant-east-asian: normal; font-variant-position: normal; font-feature-settings: normal; font-optical-sizing: auto; font-variation-settings: normal; min-height: 14px;&quot;&gt;&lt;br&gt;&lt;/p&gt;&lt;/td&gt;&lt;/tr&gt;&lt;tr&gt;&lt;td style=&quot;width: 107px; height: 11px; background-color: rgb(255, 255, 255); border-style: solid; border-width: 1px; border-color: rgb(0, 0, 0); padding: 4px;&quot; valign=&quot;top&quot;&gt;&lt;p style=&quot;margin: 0px;&quot;&gt;&lt;font style=&quot;font-style: normal; font-variant-caps: normal; font-weight: normal; font-stretch: normal; font-size: 10px; line-height: normal; font-family: &amp;quot;Helvetica Neue&amp;quot;; font-size-adjust: none; font-kerning: auto; font-variant-alternates: normal; font-variant-numeric: normal; font-variant-east-asian: normal; font-variant-position: normal; font-feature-settings: normal; font-optical-sizing: auto; font-variation-settings: normal; font-variant-ligatures: common-ligatures; color: rgb(0, 0, 0);&quot; color=&quot;#000000&quot; size=&quot;2&quot; face=&quot;Helvetica Neue&quot;&gt;sensor&lt;/font&gt;&lt;/p&gt;&lt;/td&gt;&lt;td style=&quot;width: 89px; height: 11px; background-color: rgb(255, 255, 255); border-style: solid; border-width: 1px; border-color: rgb(0, 0, 0); padding: 4px;&quot; valign=&quot;top&quot;&gt;&lt;p style=&quot;margin: 0px; font-style: normal; font-variant-caps: normal; font-weight: normal; font-stretch: normal; font-size: 12px; line-height: normal; font-family: Helvetica; font-size-adjust: none; font-kerning: auto; font-variant-alternates: normal; font-variant-ligatures: normal; font-variant-numeric: normal; font-variant-east-asian: normal; font-variant-position: normal; font-feature-settings: normal; font-optical-sizing: auto; font-variation-settings: normal; min-height: 14px;&quot;&gt;&lt;br&gt;&lt;/p&gt;&lt;/td&gt;&lt;td style=&quot;width: 89px; height: 11px; background-color: rgb(255, 255, 255); border-style: solid; border-width: 1px; border-color: rgb(0, 0, 0); padding: 4px;&quot; valign=&quot;top&quot;&gt;&lt;p style=&quot;margin: 0px;&quot;&gt;&lt;font style=&quot;font-style: normal; font-variant-caps: normal; font-weight: normal; font-stretch: normal; font-size: 10px; line-height: normal; font-family: &amp;quot;Helvetica Neue&amp;quot;; font-size-adjust: none; font-kerning: auto; font-variant-alternates: normal; font-variant-numeric: normal; font-variant-east-asian: normal; font-variant-position: normal; font-feature-settings: normal; font-optical-sizing: auto; font-variation-settings: normal; font-variant-ligatures: common-ligatures; color: rgb(0, 0, 0);&quot; color=&quot;#000000&quot; size=&quot;2&quot; face=&quot;Helvetica Neue&quot;&gt;limit_values(extend)&lt;/font&gt;&lt;/p&gt;&lt;/td&gt;&lt;td style=&quot;width: 89px; height: 11px; background-color: rgb(255, 255, 255); border-style: solid; border-width: 1px; border-color: rgb(0, 0, 0); padding: 4px;&quot; valign=&quot;top&quot;&gt;&lt;p style=&quot;margin: 0px; font-style: normal; font-variant-caps: normal; font-weight: normal; font-stretch: normal; font-size: 12px; line-height: normal; font-family: Helvetica; font-size-adjust: none; font-kerning: auto; font-variant-alternates: normal; font-variant-ligatures: normal; font-variant-numeric: normal; font-variant-east-asian: normal; font-variant-position: normal; font-feature-settings: normal; font-optical-sizing: auto; font-variation-settings: normal; min-height: 14px;&quot;&gt;&lt;br&gt;&lt;/p&gt;&lt;/td&gt;&lt;td style=&quot;width: 109px; height: 11px; background-color: rgb(255, 255, 255); border-style: solid; border-width: 1px; border-color: rgb(0, 0, 0); padding: 4px;&quot; valign=&quot;top&quot;&gt;&lt;p style=&quot;margin: 0px;&quot;&gt;&lt;font style=&quot;font-style: normal; font-variant-caps: normal; font-weight: normal; font-stretch: normal; font-size: 10px; line-height: normal; font-family: &amp;quot;Helvetica Neue&amp;quot;; font-size-adjust: none; font-kerning: auto; font-variant-alternates: normal; font-variant-numeric: normal; font-variant-east-asian: normal; font-variant-position: normal; font-feature-settings: normal; font-optical-sizing: auto; font-variation-settings: normal; font-variant-ligatures: common-ligatures; color: rgb(0, 0, 0);&quot; color=&quot;#000000&quot; size=&quot;2&quot; face=&quot;Helvetica Neue&quot;&gt;Float&lt;/font&gt;&lt;/p&gt;&lt;/td&gt;&lt;td style=&quot;width: 89px; height: 11px; background-color: rgb(255, 255, 255); border-style: solid; border-width: 1px; border-color: rgb(0, 0, 0); padding: 4px;&quot; valign=&quot;top&quot;&gt;&lt;p style=&quot;margin: 0px; font-style: normal; font-variant-caps: normal; font-weight: normal; font-stretch: normal; font-size: 12px; line-height: normal; font-family: Helvetica; font-size-adjust: none; font-kerning: auto; font-variant-alternates: normal; font-variant-ligatures: normal; font-variant-numeric: normal; font-variant-east-asian: normal; font-variant-position: normal; font-feature-settings: normal; font-optical-sizing: auto; font-variation-settings: normal; min-height: 14px;&quot;&gt;&lt;br&gt;&lt;/p&gt;&lt;/td&gt;&lt;td style=&quot;width: 168px; height: 11px; background-color: rgb(255, 255, 255); border-style: solid; border-width: 1px; border-color: rgb(0, 0, 0); padding: 4px;&quot; valign=&quot;top&quot;&gt;&lt;p style=&quot;margin: 0px;&quot;&gt;&lt;font style=&quot;font-style: normal; font-variant-caps: normal; font-weight: normal; font-stretch: normal; font-size: 10px; line-height: normal; font-family: &amp;quot;Helvetica Neue&amp;quot;; font-size-adjust: none; font-kerning: auto; font-variant-alternates: normal; font-variant-numeric: normal; font-variant-east-asian: normal; font-variant-position: normal; font-feature-settings: normal; font-optical-sizing: auto; font-variation-settings: normal; font-variant-ligatures: common-ligatures; color: rgb(0, 0, 0);&quot; color=&quot;#000000&quot; size=&quot;2&quot; face=&quot;Helvetica Neue&quot;&gt;Предельное значение для сенсора&lt;/font&gt;&lt;/p&gt;&lt;/td&gt;&lt;/tr&gt;&lt;tr&gt;&lt;td style=&quot;width: 107px; height: 11px; background-color: rgb(128, 127, 127); border-style: solid; border-width: 1px; border-color: rgb(0, 0, 0); padding: 4px;&quot; valign=&quot;top&quot;&gt;&lt;p style=&quot;margin: 0px;&quot;&gt;&lt;font style=&quot;font-style: normal; font-variant-caps: normal; font-weight: normal; font-stretch: normal; font-size: 10px; line-height: normal; font-family: &amp;quot;Helvetica Neue&amp;quot;; font-size-adjust: none; font-kerning: auto; font-variant-alternates: normal; font-variant-numeric: normal; font-variant-east-asian: normal; font-variant-position: normal; font-feature-settings: normal; font-optical-sizing: auto; font-variation-settings: normal; font-variant-ligatures: common-ligatures; color: rgb(0, 0, 0);&quot; color=&quot;#000000&quot; size=&quot;2&quot; face=&quot;Helvetica Neue&quot;&gt;sensor&lt;/font&gt;&lt;/p&gt;&lt;/td&gt;&lt;td style=&quot;width: 89px; height: 11px; background-color: rgb(128, 127, 127); border-style: solid; border-width: 1px; border-color: rgb(0, 0, 0); padding: 4px;&quot; valign=&quot;top&quot;&gt;&lt;p style=&quot;margin: 0px; font-style: normal; font-variant-caps: normal; font-weight: normal; font-stretch: normal; font-size: 12px; line-height: normal; font-family: Helvetica; font-size-adjust: none; font-kerning: auto; font-variant-alternates: normal; font-variant-ligatures: normal; font-variant-numeric: normal; font-variant-east-asian: normal; font-variant-position: normal; font-feature-settings: normal; font-optical-sizing: auto; font-variation-settings: normal; min-height: 14px;&quot;&gt;&lt;br&gt;&lt;/p&gt;&lt;/td&gt;&lt;td style=&quot;width: 89px; height: 11px; background-color: rgb(128, 127, 127); border-style: solid; border-width: 1px; border-color: rgb(0, 0, 0); padding: 4px;&quot; valign=&quot;top&quot;&gt;&lt;p style=&quot;margin: 0px;&quot;&gt;&lt;font style=&quot;font-style: normal; font-variant-caps: normal; font-weight: normal; font-stretch: normal; font-size: 10px; line-height: normal; font-family: &amp;quot;Helvetica Neue&amp;quot;; font-size-adjust: none; font-kerning: auto; font-variant-alternates: normal; font-variant-numeric: normal; font-variant-east-asian: normal; font-variant-position: normal; font-feature-settings: normal; font-optical-sizing: auto; font-variation-settings: normal; font-variant-ligatures: common-ligatures; color: rgb(0, 0, 0);&quot; color=&quot;#000000&quot; size=&quot;2&quot; face=&quot;Helvetica Neue&quot;&gt;values&lt;/font&gt;&lt;/p&gt;&lt;/td&gt;&lt;td style=&quot;width: 89px; height: 11px; background-color: rgb(128, 127, 127); border-style: solid; border-width: 1px; border-color: rgb(0, 0, 0); padding: 4px;&quot; valign=&quot;top&quot;&gt;&lt;p style=&quot;margin: 0px;&quot;&gt;&lt;font style=&quot;font-style: normal; font-variant-caps: normal; font-weight: normal; font-stretch: normal; font-size: 10px; line-height: normal; font-family: &amp;quot;Helvetica Neue&amp;quot;; font-size-adjust: none; font-kerning: auto; font-variant-alternates: normal; font-variant-numeric: normal; font-variant-east-asian: normal; font-variant-position: normal; font-feature-settings: normal; font-optical-sizing: auto; font-variation-settings: normal; font-variant-ligatures: common-ligatures; color: rgb(0, 0, 0);&quot; color=&quot;#000000&quot; size=&quot;2&quot; face=&quot;Helvetica Neue&quot;&gt;+&lt;/font&gt;&lt;/p&gt;&lt;/td&gt;&lt;td style=&quot;width: 109px; height: 11px; background-color: rgb(128, 127, 127); border-style: solid; border-width: 1px; border-color: rgb(0, 0, 0); padding: 4px;&quot; valign=&quot;top&quot;&gt;&lt;p style=&quot;margin: 0px;&quot;&gt;&lt;font style=&quot;font-style: normal; font-variant-caps: normal; font-weight: normal; font-stretch: normal; font-size: 10px; line-height: normal; font-family: &amp;quot;Helvetica Neue&amp;quot;; font-size-adjust: none; font-kerning: auto; font-variant-alternates: normal; font-variant-numeric: normal; font-variant-east-asian: normal; font-variant-position: normal; font-feature-settings: normal; font-optical-sizing: auto; font-variation-settings: normal; font-variant-ligatures: common-ligatures; color: rgb(0, 0, 0);&quot; color=&quot;#000000&quot; size=&quot;2&quot; face=&quot;Helvetica Neue&quot;&gt;sensor_value[ ]&lt;/font&gt;&lt;/p&gt;&lt;/td&gt;&lt;td style=&quot;width: 89px; height: 11px; background-color: rgb(128, 127, 127); border-style: solid; border-width: 1px; border-color: rgb(0, 0, 0); padding: 4px;&quot; valign=&quot;top&quot;&gt;&lt;p style=&quot;margin: 0px;&quot;&gt;&lt;font style=&quot;font-style: normal; font-variant-caps: normal; font-weight: normal; font-stretch: normal; font-size: 10px; line-height: normal; font-family: &amp;quot;Helvetica Neue&amp;quot;; font-size-adjust: none; font-kerning: auto; font-variant-alternates: normal; font-variant-numeric: normal; font-variant-east-asian: normal; font-variant-position: normal; font-feature-settings: normal; font-optical-sizing: auto; font-variation-settings: normal; font-variant-ligatures: common-ligatures; color: rgb(0, 0, 0);&quot; color=&quot;#000000&quot; size=&quot;2&quot; face=&quot;Helvetica Neue&quot;&gt;1..*&lt;/font&gt;&lt;/p&gt;&lt;/td&gt;&lt;td style=&quot;width: 168px; height: 11px; background-color: rgb(128, 127, 127); border-style: solid; border-width: 1px; border-color: rgb(0, 0, 0); padding: 4px;&quot; valign=&quot;top&quot;&gt;&lt;p style=&quot;margin: 0px; font-style: normal; font-variant-caps: normal; font-weight: normal; font-stretch: normal; font-size: 12px; line-height: normal; font-family: Helvetica; font-size-adjust: none; font-kerning: auto; font-variant-alternates: normal; font-variant-ligatures: normal; font-variant-numeric: normal; font-variant-east-asian: normal; font-variant-position: normal; font-feature-settings: normal; font-optical-sizing: auto; font-variation-settings: normal; min-height: 14px;&quot;&gt;&lt;br&gt;&lt;/p&gt;&lt;/td&gt;&lt;/tr&gt;&lt;tr&gt;&lt;td style=&quot;width: 107px; height: 11px; background-color: rgb(128, 127, 127); border-style: solid; border-width: 1px; border-color: rgb(0, 0, 0); padding: 4px;&quot; valign=&quot;top&quot;&gt;&lt;p style=&quot;margin: 0px;&quot;&gt;&lt;font style=&quot;font-style: normal; font-variant-caps: normal; font-weight: normal; font-stretch: normal; font-size: 10px; line-height: normal; font-family: &amp;quot;Helvetica Neue&amp;quot;; font-size-adjust: none; font-kerning: auto; font-variant-alternates: normal; font-variant-numeric: normal; font-variant-east-asian: normal; font-variant-position: normal; font-feature-settings: normal; font-optical-sizing: auto; font-variation-settings: normal; font-variant-ligatures: common-ligatures; color: rgb(0, 0, 0);&quot; color=&quot;#000000&quot; size=&quot;2&quot; face=&quot;Helvetica Neue&quot;&gt;sensor&lt;/font&gt;&lt;/p&gt;&lt;/td&gt;&lt;td style=&quot;width: 89px; height: 11px; background-color: rgb(128, 127, 127); border-style: solid; border-width: 1px; border-color: rgb(0, 0, 0); padding: 4px;&quot; valign=&quot;top&quot;&gt;&lt;p style=&quot;margin: 0px; font-style: normal; font-variant-caps: normal; font-weight: normal; font-stretch: normal; font-size: 12px; line-height: normal; font-family: Helvetica; font-size-adjust: none; font-kerning: auto; font-variant-alternates: normal; font-variant-ligatures: normal; font-variant-numeric: normal; font-variant-east-asian: normal; font-variant-position: normal; font-feature-settings: normal; font-optical-sizing: auto; font-variation-settings: normal; min-height: 14px;&quot;&gt;&lt;br&gt;&lt;/p&gt;&lt;/td&gt;&lt;td style=&quot;width: 89px; height: 11px; background-color: rgb(128, 127, 127); border-style: solid; border-width: 1px; border-color: rgb(0, 0, 0); padding: 4px;&quot; valign=&quot;top&quot;&gt;&lt;p style=&quot;margin: 0px;&quot;&gt;&lt;font style=&quot;font-style: normal; font-variant-caps: normal; font-weight: normal; font-stretch: normal; font-size: 10px; line-height: normal; font-family: &amp;quot;Helvetica Neue&amp;quot;; font-size-adjust: none; font-kerning: auto; font-variant-alternates: normal; font-variant-numeric: normal; font-variant-east-asian: normal; font-variant-position: normal; font-feature-settings: normal; font-optical-sizing: auto; font-variation-settings: normal; font-variant-ligatures: common-ligatures; color: rgb(0, 0, 0);&quot; color=&quot;#000000&quot; size=&quot;2&quot; face=&quot;Helvetica Neue&quot;&gt;hardware_r&lt;/font&gt;&lt;/p&gt;&lt;/td&gt;&lt;td style=&quot;width: 89px; height: 11px; background-color: rgb(128, 127, 127); border-style: solid; border-width: 1px; border-color: rgb(0, 0, 0); padding: 4px;&quot; valign=&quot;top&quot;&gt;&lt;p style=&quot;margin: 0px;&quot;&gt;&lt;font style=&quot;font-style: normal; font-variant-caps: normal; font-weight: normal; font-stretch: normal; font-size: 10px; line-height: normal; font-family: &amp;quot;Helvetica Neue&amp;quot;; font-size-adjust: none; font-kerning: auto; font-variant-alternates: normal; font-variant-numeric: normal; font-variant-east-asian: normal; font-variant-position: normal; font-feature-settings: normal; font-optical-sizing: auto; font-variation-settings: normal; font-variant-ligatures: common-ligatures; color: rgb(0, 0, 0);&quot; color=&quot;#000000&quot; size=&quot;2&quot; face=&quot;Helvetica Neue&quot;&gt;+&lt;/font&gt;&lt;/p&gt;&lt;/td&gt;&lt;td style=&quot;width: 109px; height: 11px; background-color: rgb(128, 127, 127); border-style: solid; border-width: 1px; border-color: rgb(0, 0, 0); padding: 4px;&quot; valign=&quot;top&quot;&gt;&lt;p style=&quot;margin: 0px;&quot;&gt;&lt;font style=&quot;font-style: normal; font-variant-caps: normal; font-weight: normal; font-stretch: normal; font-size: 10px; line-height: normal; font-family: &amp;quot;Helvetica Neue&amp;quot;; font-size-adjust: none; font-kerning: auto; font-variant-alternates: normal; font-variant-numeric: normal; font-variant-east-asian: normal; font-variant-position: normal; font-feature-settings: normal; font-optical-sizing: auto; font-variation-settings: normal; font-variant-ligatures: common-ligatures; color: rgb(0, 0, 0);&quot; color=&quot;#000000&quot; size=&quot;2&quot; face=&quot;Helvetica Neue&quot;&gt;hardware&lt;/font&gt;&lt;/p&gt;&lt;/td&gt;&lt;td style=&quot;width: 89px; height: 11px; background-color: rgb(128, 127, 127); border-style: solid; border-width: 1px; border-color: rgb(0, 0, 0); padding: 4px;&quot; valign=&quot;top&quot;&gt;&lt;p style=&quot;margin: 0px; font-style: normal; font-variant-caps: normal; font-weight: normal; font-stretch: normal; font-size: 12px; line-height: normal; font-family: Helvetica; font-size-adjust: none; font-kerning: auto; font-variant-alternates: normal; font-variant-ligatures: normal; font-variant-numeric: normal; font-variant-east-asian: normal; font-variant-position: normal; font-feature-settings: normal; font-optical-sizing: auto; font-variation-settings: normal; min-height: 14px;&quot;&gt;&lt;br&gt;&lt;/p&gt;&lt;/td&gt;&lt;td style=&quot;width: 168px; height: 11px; background-color: rgb(128, 127, 127); border-style: solid; border-width: 1px; border-color: rgb(0, 0, 0); padding: 4px;&quot; valign=&quot;top&quot;&gt;&lt;p style=&quot;margin: 0px; font-style: normal; font-variant-caps: normal; font-weight: normal; font-stretch: normal; font-size: 12px; line-height: normal; font-family: Helvetica; font-size-adjust: none; font-kerning: auto; font-variant-alternates: normal; font-variant-ligatures: normal; font-variant-numeric: normal; font-variant-east-asian: normal; font-variant-position: normal; font-feature-settings: normal; font-optical-sizing: auto; font-variation-settings: normal; min-height: 14px;&quot;&gt;&lt;br&gt;&lt;/p&gt;&lt;/td&gt;&lt;/tr&gt;&lt;tr&gt;&lt;td style=&quot;width: 107px; height: 11px; background-color: rgb(255, 255, 255); border-style: solid; border-width: 1px; border-color: rgb(0, 0, 0); padding: 4px;&quot; valign=&quot;top&quot;&gt;&lt;p style=&quot;margin: 0px;&quot;&gt;&lt;font style=&quot;font-style: normal; font-variant-caps: normal; font-weight: normal; font-stretch: normal; font-size: 10px; line-height: normal; font-family: &amp;quot;Helvetica Neue&amp;quot;; font-size-adjust: none; font-kerning: auto; font-variant-alternates: normal; font-variant-numeric: normal; font-variant-east-asian: normal; font-variant-position: normal; font-feature-settings: normal; font-optical-sizing: auto; font-variation-settings: normal; font-variant-ligatures: common-ligatures; color: rgb(0, 0, 0);&quot; color=&quot;#000000&quot; size=&quot;2&quot; face=&quot;Helvetica Neue&quot;&gt;hardware_part&lt;/font&gt;&lt;/p&gt;&lt;/td&gt;&lt;td style=&quot;width: 89px; height: 11px; background-color: rgb(255, 255, 255); border-style: solid; border-width: 1px; border-color: rgb(0, 0, 0); padding: 4px;&quot; valign=&quot;top&quot;&gt;&lt;p style=&quot;margin: 0px;&quot;&gt;&lt;font style=&quot;font-style: normal; font-variant-caps: normal; font-weight: normal; font-stretch: normal; font-size: 10px; line-height: normal; font-family: &amp;quot;Helvetica Neue&amp;quot;; font-size-adjust: none; font-kerning: auto; font-variant-alternates: normal; font-variant-numeric: normal; font-variant-east-asian: normal; font-variant-position: normal; font-feature-settings: normal; font-optical-sizing: auto; font-variation-settings: normal; font-variant-ligatures: common-ligatures; color: rgb(0, 0, 0);&quot; color=&quot;#000000&quot; size=&quot;2&quot; face=&quot;Helvetica Neue&quot;&gt;+&lt;/font&gt;&lt;/p&gt;&lt;/td&gt;&lt;td style=&quot;width: 89px; height: 11px; background-color: rgb(255, 255, 255); border-style: solid; border-width: 1px; border-color: rgb(0, 0, 0); padding: 4px;&quot; valign=&quot;top&quot;&gt;&lt;p style=&quot;margin: 0px;&quot;&gt;&lt;font style=&quot;font-style: normal; font-variant-caps: normal; font-weight: normal; font-stretch: normal; font-size: 10px; line-height: normal; font-family: &amp;quot;Helvetica Neue&amp;quot;; font-size-adjust: none; font-kerning: auto; font-variant-alternates: normal; font-variant-numeric: normal; font-variant-east-asian: normal; font-variant-position: normal; font-feature-settings: normal; font-optical-sizing: auto; font-variation-settings: normal; font-variant-ligatures: common-ligatures; color: rgb(0, 0, 0);&quot; color=&quot;#000000&quot; size=&quot;2&quot; face=&quot;Helvetica Neue&quot;&gt;name&lt;/font&gt;&lt;/p&gt;&lt;/td&gt;&lt;td style=&quot;width: 89px; height: 11px; background-color: rgb(255, 255, 255); border-style: solid; border-width: 1px; border-color: rgb(0, 0, 0); padding: 4px;&quot; valign=&quot;top&quot;&gt;&lt;p style=&quot;margin: 0px;&quot;&gt;&lt;font style=&quot;font-style: normal; font-variant-caps: normal; font-weight: normal; font-stretch: normal; font-size: 10px; line-height: normal; font-family: &amp;quot;Helvetica Neue&amp;quot;; font-size-adjust: none; font-kerning: auto; font-variant-alternates: normal; font-variant-numeric: normal; font-variant-east-asian: normal; font-variant-position: normal; font-feature-settings: normal; font-optical-sizing: auto; font-variation-settings: normal; font-variant-ligatures: common-ligatures; color: rgb(0, 0, 0);&quot; color=&quot;#000000&quot; size=&quot;2&quot; face=&quot;Helvetica Neue&quot;&gt;+&lt;/font&gt;&lt;/p&gt;&lt;/td&gt;&lt;td style=&quot;width: 109px; height: 11px; background-color: rgb(255, 255, 255); border-style: solid; border-width: 1px; border-color: rgb(0, 0, 0); padding: 4px;&quot; valign=&quot;top&quot;&gt;&lt;p style=&quot;margin: 0px;&quot;&gt;&lt;font style=&quot;font-style: normal; font-variant-caps: normal; font-weight: normal; font-stretch: normal; font-size: 10px; line-height: normal; font-family: &amp;quot;Helvetica Neue&amp;quot;; font-size-adjust: none; font-kerning: auto; font-variant-alternates: normal; font-variant-numeric: normal; font-variant-east-asian: normal; font-variant-position: normal; font-feature-settings: normal; font-optical-sizing: auto; font-variation-settings: normal; font-variant-ligatures: common-ligatures; color: rgb(0, 0, 0);&quot; color=&quot;#000000&quot; size=&quot;2&quot; face=&quot;Helvetica Neue&quot;&gt;String&lt;/font&gt;&lt;/p&gt;&lt;/td&gt;&lt;td style=&quot;width: 89px; height: 11px; background-color: rgb(255, 255, 255); border-style: solid; border-width: 1px; border-color: rgb(0, 0, 0); padding: 4px;&quot; valign=&quot;top&quot;&gt;&lt;p style=&quot;margin: 0px; font-style: normal; font-variant-caps: normal; font-weight: normal; font-stretch: normal; font-size: 12px; line-height: normal; font-family: Helvetica; font-size-adjust: none; font-kerning: auto; font-variant-alternates: normal; font-variant-ligatures: normal; font-variant-numeric: normal; font-variant-east-asian: normal; font-variant-position: normal; font-feature-settings: normal; font-optical-sizing: auto; font-variation-settings: normal; min-height: 14px;&quot;&gt;&lt;br&gt;&lt;/p&gt;&lt;/td&gt;&lt;td style=&quot;width: 168px; height: 11px; background-color: rgb(255, 255, 255); border-style: solid; border-width: 1px; border-color: rgb(0, 0, 0); padding: 4px;&quot; valign=&quot;top&quot;&gt;&lt;p style=&quot;margin: 0px;&quot;&gt;&lt;font style=&quot;font-style: normal; font-variant-caps: normal; font-weight: normal; font-stretch: normal; font-size: 10px; line-height: normal; font-family: &amp;quot;Helvetica Neue&amp;quot;; font-size-adjust: none; font-kerning: auto; font-variant-alternates: normal; font-variant-numeric: normal; font-variant-east-asian: normal; font-variant-position: normal; font-feature-settings: normal; font-optical-sizing: auto; font-variation-settings: normal; font-variant-ligatures: common-ligatures; color: rgb(0, 0, 0);&quot; color=&quot;#000000&quot; size=&quot;2&quot; face=&quot;Helvetica Neue&quot;&gt;Название части компонента&lt;/font&gt;&lt;/p&gt;&lt;/td&gt;&lt;/tr&gt;&lt;tr&gt;&lt;td style=&quot;width: 107px; height: 11px; background-color: rgb(128, 127, 127); border-style: solid; border-width: 1px; border-color: rgb(0, 0, 0); padding: 4px;&quot; valign=&quot;top&quot;&gt;&lt;p style=&quot;margin: 0px;&quot;&gt;&lt;font style=&quot;font-style: normal; font-variant-caps: normal; font-weight: normal; font-stretch: normal; font-size: 10px; line-height: normal; font-family: &amp;quot;Helvetica Neue&amp;quot;; font-size-adjust: none; font-kerning: auto; font-variant-alternates: normal; font-variant-numeric: normal; font-variant-east-asian: normal; font-variant-position: normal; font-feature-settings: normal; font-optical-sizing: auto; font-variation-settings: normal; font-variant-ligatures: common-ligatures; color: rgb(0, 0, 0);&quot; color=&quot;#000000&quot; size=&quot;2&quot; face=&quot;Helvetica Neue&quot;&gt;hardware_part&lt;/font&gt;&lt;/p&gt;&lt;/td&gt;&lt;td style=&quot;width: 89px; height: 11px; background-color: rgb(128, 127, 127); border-style: solid; border-width: 1px; border-color: rgb(0, 0, 0); padding: 4px;&quot; valign=&quot;top&quot;&gt;&lt;p style=&quot;margin: 0px; font-style: normal; font-variant-caps: normal; font-weight: normal; font-stretch: normal; font-size: 12px; line-height: normal; font-family: Helvetica; font-size-adjust: none; font-kerning: auto; font-variant-alternates: normal; font-variant-ligatures: normal; font-variant-numeric: normal; font-variant-east-asian: normal; font-variant-position: normal; font-feature-settings: normal; font-optical-sizing: auto; font-variation-settings: normal; min-height: 14px;&quot;&gt;&lt;br&gt;&lt;/p&gt;&lt;/td&gt;&lt;td style=&quot;width: 89px; height: 11px; background-color: rgb(128, 127, 127); border-style: solid; border-width: 1px; border-color: rgb(0, 0, 0); padding: 4px;&quot; valign=&quot;top&quot;&gt;&lt;p style=&quot;margin: 0px;&quot;&gt;&lt;font style=&quot;font-style: normal; font-variant-caps: normal; font-weight: normal; font-stretch: normal; font-size: 10px; line-height: normal; font-family: &amp;quot;Helvetica Neue&amp;quot;; font-size-adjust: none; font-kerning: auto; font-variant-alternates: normal; font-variant-numeric: normal; font-variant-east-asian: normal; font-variant-position: normal; font-feature-settings: normal; font-optical-sizing: auto; font-variation-settings: normal; font-variant-ligatures: common-ligatures; color: rgb(0, 0, 0);&quot; color=&quot;#000000&quot; size=&quot;2&quot; face=&quot;Helvetica Neue&quot;&gt;hardware_r&lt;/font&gt;&lt;/p&gt;&lt;/td&gt;&lt;td style=&quot;width: 89px; height: 11px; background-color: rgb(128, 127, 127); border-style: solid; border-width: 1px; border-color: rgb(0, 0, 0); padding: 4px;&quot; valign=&quot;top&quot;&gt;&lt;p style=&quot;margin: 0px;&quot;&gt;&lt;font style=&quot;font-style: normal; font-variant-caps: normal; font-weight: normal; font-stretch: normal; font-size: 10px; line-height: normal; font-family: &amp;quot;Helvetica Neue&amp;quot;; font-size-adjust: none; font-kerning: auto; font-variant-alternates: normal; font-variant-numeric: normal; font-variant-east-asian: normal; font-variant-position: normal; font-feature-settings: normal; font-optical-sizing: auto; font-variation-settings: normal; font-variant-ligatures: common-ligatures; color: rgb(0, 0, 0);&quot; color=&quot;#000000&quot; size=&quot;2&quot; face=&quot;Helvetica Neue&quot;&gt;+&lt;/font&gt;&lt;/p&gt;&lt;/td&gt;&lt;td style=&quot;width: 109px; height: 11px; background-color: rgb(128, 127, 127); border-style: solid; border-width: 1px; border-color: rgb(0, 0, 0); padding: 4px;&quot; valign=&quot;top&quot;&gt;&lt;p style=&quot;margin: 0px;&quot;&gt;&lt;font style=&quot;font-style: normal; font-variant-caps: normal; font-weight: normal; font-stretch: normal; font-size: 10px; line-height: normal; font-family: &amp;quot;Helvetica Neue&amp;quot;; font-size-adjust: none; font-kerning: auto; font-variant-alternates: normal; font-variant-numeric: normal; font-variant-east-asian: normal; font-variant-position: normal; font-feature-settings: normal; font-optical-sizing: auto; font-variation-settings: normal; font-variant-ligatures: common-ligatures; color: rgb(0, 0, 0);&quot; color=&quot;#000000&quot; size=&quot;2&quot; face=&quot;Helvetica Neue&quot;&gt;hardware&lt;/font&gt;&lt;/p&gt;&lt;/td&gt;&lt;td style=&quot;width: 89px; height: 11px; background-color: rgb(128, 127, 127); border-style: solid; border-width: 1px; border-color: rgb(0, 0, 0); padding: 4px;&quot; valign=&quot;top&quot;&gt;&lt;p style=&quot;margin: 0px; font-style: normal; font-variant-caps: normal; font-weight: normal; font-stretch: normal; font-size: 12px; line-height: normal; font-family: Helvetica; font-size-adjust: none; font-kerning: auto; font-variant-alternates: normal; font-variant-ligatures: normal; font-variant-numeric: normal; font-variant-east-asian: normal; font-variant-position: normal; font-feature-settings: normal; font-optical-sizing: auto; font-variation-settings: normal; min-height: 14px;&quot;&gt;&lt;br&gt;&lt;/p&gt;&lt;/td&gt;&lt;td style=&quot;width: 168px; height: 11px; background-color: rgb(128, 127, 127); border-style: solid; border-width: 1px; border-color: rgb(0, 0, 0); padding: 4px;&quot; valign=&quot;top&quot;&gt;&lt;p style=&quot;margin: 0px; font-style: normal; font-variant-caps: normal; font-weight: normal; font-stretch: normal; font-size: 12px; line-height: normal; font-family: Helvetica; font-size-adjust: none; font-kerning: auto; font-variant-alternates: normal; font-variant-ligatures: normal; font-variant-numeric: normal; font-variant-east-asian: normal; font-variant-position: normal; font-feature-settings: normal; font-optical-sizing: auto; font-variation-settings: normal; min-height: 14px;&quot;&gt;&lt;br&gt;&lt;/p&gt;&lt;/td&gt;&lt;/tr&gt;&lt;tr&gt;&lt;td style=&quot;width: 107px; height: 23px; background-color: rgb(255, 255, 255); border-style: solid; border-width: 1px; border-color: rgb(0, 0, 0); padding: 4px;&quot; valign=&quot;top&quot;&gt;&lt;p style=&quot;margin: 0px;&quot;&gt;&lt;font style=&quot;font-style: normal; font-variant-caps: normal; font-weight: normal; font-stretch: normal; font-size: 10px; line-height: normal; font-family: &amp;quot;Helvetica Neue&amp;quot;; font-size-adjust: none; font-kerning: auto; font-variant-alternates: normal; font-variant-numeric: normal; font-variant-east-asian: normal; font-variant-position: normal; font-feature-settings: normal; font-optical-sizing: auto; font-variation-settings: normal; font-variant-ligatures: common-ligatures; color: rgb(0, 0, 0);&quot; color=&quot;#000000&quot; size=&quot;2&quot; face=&quot;Helvetica Neue&quot;&gt;sensor_value&lt;/font&gt;&lt;/p&gt;&lt;/td&gt;&lt;td style=&quot;width: 89px; height: 23px; background-color: rgb(255, 255, 255); border-style: solid; border-width: 1px; border-color: rgb(0, 0, 0); padding: 4px;&quot; valign=&quot;top&quot;&gt;&lt;p style=&quot;margin: 0px;&quot;&gt;&lt;font style=&quot;font-style: normal; font-variant-caps: normal; font-weight: normal; font-stretch: normal; font-size: 10px; line-height: normal; font-family: &amp;quot;Helvetica Neue&amp;quot;; font-size-adjust: none; font-kerning: auto; font-variant-alternates: normal; font-variant-numeric: normal; font-variant-east-asian: normal; font-variant-position: normal; font-feature-settings: normal; font-optical-sizing: auto; font-variation-settings: normal; font-variant-ligatures: common-ligatures; color: rgb(0, 0, 0);&quot; color=&quot;#000000&quot; size=&quot;2&quot; face=&quot;Helvetica Neue&quot;&gt;+&lt;/font&gt;&lt;/p&gt;&lt;/td&gt;&lt;td style=&quot;width: 89px; height: 23px; background-color: rgb(255, 255, 255); border-style: solid; border-width: 1px; border-color: rgb(0, 0, 0); padding: 4px;&quot; valign=&quot;top&quot;&gt;&lt;p style=&quot;margin: 0px;&quot;&gt;&lt;font style=&quot;font-style: normal; font-variant-caps: normal; font-weight: normal; font-stretch: normal; font-size: 10px; line-height: normal; font-family: &amp;quot;Helvetica Neue&amp;quot;; font-size-adjust: none; font-kerning: auto; font-variant-alternates: normal; font-variant-numeric: normal; font-variant-east-asian: normal; font-variant-position: normal; font-feature-settings: normal; font-optical-sizing: auto; font-variation-settings: normal; font-variant-ligatures: common-ligatures; color: rgb(0, 0, 0);&quot; color=&quot;#000000&quot; size=&quot;2&quot; face=&quot;Helvetica Neue&quot;&gt;hardware_type&lt;/font&gt;&lt;/p&gt;&lt;/td&gt;&lt;td style=&quot;width: 89px; height: 23px; background-color: rgb(255, 255, 255); border-style: solid; border-width: 1px; border-color: rgb(0, 0, 0); padding: 4px;&quot; valign=&quot;top&quot;&gt;&lt;p style=&quot;margin: 0px;&quot;&gt;&lt;font style=&quot;font-style: normal; font-variant-caps: normal; font-weight: normal; font-stretch: normal; font-size: 10px; line-height: normal; font-family: &amp;quot;Helvetica Neue&amp;quot;; font-size-adjust: none; font-kerning: auto; font-variant-alternates: normal; font-variant-numeric: normal; font-variant-east-asian: normal; font-variant-position: normal; font-feature-settings: normal; font-optical-sizing: auto; font-variation-settings: normal; font-variant-ligatures: common-ligatures; color: rgb(0, 0, 0);&quot; color=&quot;#000000&quot; size=&quot;2&quot; face=&quot;Helvetica Neue&quot;&gt;+&lt;/font&gt;&lt;/p&gt;&lt;/td&gt;&lt;td style=&quot;width: 109px; height: 23px; background-color: rgb(255, 255, 255); border-style: solid; border-width: 1px; border-color: rgb(0, 0, 0); padding: 4px;&quot; valign=&quot;top&quot;&gt;&lt;p style=&quot;margin: 0px;&quot;&gt;&lt;font style=&quot;font-style: normal; font-variant-caps: normal; font-weight: normal; font-stretch: normal; font-size: 10px; line-height: normal; font-family: &amp;quot;Helvetica Neue&amp;quot;; font-size-adjust: none; font-kerning: auto; font-variant-alternates: normal; font-variant-numeric: normal; font-variant-east-asian: normal; font-variant-position: normal; font-feature-settings: normal; font-optical-sizing: auto; font-variation-settings: normal; font-variant-ligatures: common-ligatures; color: rgb(0, 0, 0);&quot; color=&quot;#000000&quot; size=&quot;2&quot; face=&quot;Helvetica Neue&quot;&gt;String&lt;/font&gt;&lt;/p&gt;&lt;/td&gt;&lt;td style=&quot;width: 89px; height: 23px; background-color: rgb(255, 255, 255); border-style: solid; border-width: 1px; border-color: rgb(0, 0, 0); padding: 4px;&quot; valign=&quot;top&quot;&gt;&lt;p style=&quot;margin: 0px; font-style: normal; font-variant-caps: normal; font-weight: normal; font-stretch: normal; font-size: 12px; line-height: normal; font-family: Helvetica; font-size-adjust: none; font-kerning: auto; font-variant-alternates: normal; font-variant-ligatures: normal; font-variant-numeric: normal; font-variant-east-asian: normal; font-variant-position: normal; font-feature-settings: normal; font-optical-sizing: auto; font-variation-settings: normal; min-height: 14px;&quot;&gt;&lt;br&gt;&lt;/p&gt;&lt;/td&gt;&lt;td style=&quot;width: 168px; height: 23px; background-color: rgb(255, 255, 255); border-style: solid; border-width: 1px; border-color: rgb(0, 0, 0); padding: 4px;&quot; valign=&quot;top&quot;&gt;&lt;p style=&quot;margin: 0px;&quot;&gt;&lt;font style=&quot;font-style: normal; font-variant-caps: normal; font-weight: normal; font-stretch: normal; font-size: 10px; line-height: normal; font-family: &amp;quot;Helvetica Neue&amp;quot;; font-size-adjust: none; font-kerning: auto; font-variant-alternates: normal; font-variant-numeric: normal; font-variant-east-asian: normal; font-variant-position: normal; font-feature-settings: normal; font-optical-sizing: auto; font-variation-settings: normal; font-variant-ligatures: common-ligatures; color: rgb(0, 0, 0);&quot; color=&quot;#000000&quot; size=&quot;2&quot; face=&quot;Helvetica Neue&quot;&gt;Тип информации о компоненте, содержащем сенсор&lt;/font&gt;&lt;/p&gt;&lt;/td&gt;&lt;/tr&gt;&lt;tr&gt;&lt;td style=&quot;width: 107px; height: 11px; background-color: rgb(255, 255, 255); border-style: solid; border-width: 1px; border-color: rgb(0, 0, 0); padding: 4px;&quot; valign=&quot;top&quot;&gt;&lt;p style=&quot;margin: 0px;&quot;&gt;&lt;font style=&quot;font-style: normal; font-variant-caps: normal; font-weight: normal; font-stretch: normal; font-size: 10px; line-height: normal; font-family: &amp;quot;Helvetica Neue&amp;quot;; font-size-adjust: none; font-kerning: auto; font-variant-alternates: normal; font-variant-numeric: normal; font-variant-east-asian: normal; font-variant-position: normal; font-feature-settings: normal; font-optical-sizing: auto; font-variation-settings: normal; font-variant-ligatures: common-ligatures; color: rgb(0, 0, 0);&quot; color=&quot;#000000&quot; size=&quot;2&quot; face=&quot;Helvetica Neue&quot;&gt;sensor_value&lt;/font&gt;&lt;/p&gt;&lt;/td&gt;&lt;td style=&quot;width: 89px; height: 11px; background-color: rgb(255, 255, 255); border-style: solid; border-width: 1px; border-color: rgb(0, 0, 0); padding: 4px;&quot; valign=&quot;top&quot;&gt;&lt;p style=&quot;margin: 0px;&quot;&gt;&lt;font style=&quot;font-style: normal; font-variant-caps: normal; font-weight: normal; font-stretch: normal; font-size: 10px; line-height: normal; font-family: &amp;quot;Helvetica Neue&amp;quot;; font-size-adjust: none; font-kerning: auto; font-variant-alternates: normal; font-variant-numeric: normal; font-variant-east-asian: normal; font-variant-position: normal; font-feature-settings: normal; font-optical-sizing: auto; font-variation-settings: normal; font-variant-ligatures: common-ligatures; color: rgb(0, 0, 0);&quot; color=&quot;#000000&quot; size=&quot;2&quot; face=&quot;Helvetica Neue&quot;&gt;+&lt;/font&gt;&lt;/p&gt;&lt;/td&gt;&lt;td style=&quot;width: 89px; height: 11px; background-color: rgb(255, 255, 255); border-style: solid; border-width: 1px; border-color: rgb(0, 0, 0); padding: 4px;&quot; valign=&quot;top&quot;&gt;&lt;p style=&quot;margin: 0px;&quot;&gt;&lt;font style=&quot;font-style: normal; font-variant-caps: normal; font-weight: normal; font-stretch: normal; font-size: 10px; line-height: normal; font-family: &amp;quot;Helvetica Neue&amp;quot;; font-size-adjust: none; font-kerning: auto; font-variant-alternates: normal; font-variant-numeric: normal; font-variant-east-asian: normal; font-variant-position: normal; font-feature-settings: normal; font-optical-sizing: auto; font-variation-settings: normal; font-variant-ligatures: common-ligatures; color: rgb(0, 0, 0);&quot; color=&quot;#000000&quot; size=&quot;2&quot; face=&quot;Helvetica Neue&quot;&gt;sensor_type&lt;/font&gt;&lt;/p&gt;&lt;/td&gt;&lt;td style=&quot;width: 89px; height: 11px; background-color: rgb(255, 255, 255); border-style: solid; border-width: 1px; border-color: rgb(0, 0, 0); padding: 4px;&quot; valign=&quot;top&quot;&gt;&lt;p style=&quot;margin: 0px;&quot;&gt;&lt;font style=&quot;font-style: normal; font-variant-caps: normal; font-weight: normal; font-stretch: normal; font-size: 10px; line-height: normal; font-family: &amp;quot;Helvetica Neue&amp;quot;; font-size-adjust: none; font-kerning: auto; font-variant-alternates: normal; font-variant-numeric: normal; font-variant-east-asian: normal; font-variant-position: normal; font-feature-settings: normal; font-optical-sizing: auto; font-variation-settings: normal; font-variant-ligatures: common-ligatures; color: rgb(0, 0, 0);&quot; color=&quot;#000000&quot; size=&quot;2&quot; face=&quot;Helvetica Neue&quot;&gt;+&lt;/font&gt;&lt;/p&gt;&lt;/td&gt;&lt;td style=&quot;width: 109px; height: 11px; background-color: rgb(255, 255, 255); border-style: solid; border-width: 1px; border-color: rgb(0, 0, 0); padding: 4px;&quot; valign=&quot;top&quot;&gt;&lt;p style=&quot;margin: 0px;&quot;&gt;&lt;font style=&quot;font-style: normal; font-variant-caps: normal; font-weight: normal; font-stretch: normal; font-size: 10px; line-height: normal; font-family: &amp;quot;Helvetica Neue&amp;quot;; font-size-adjust: none; font-kerning: auto; font-variant-alternates: normal; font-variant-numeric: normal; font-variant-east-asian: normal; font-variant-position: normal; font-feature-settings: normal; font-optical-sizing: auto; font-variation-settings: normal; font-variant-ligatures: common-ligatures; color: rgb(0, 0, 0);&quot; color=&quot;#000000&quot; size=&quot;2&quot; face=&quot;Helvetica Neue&quot;&gt;String&lt;/font&gt;&lt;/p&gt;&lt;/td&gt;&lt;td style=&quot;width: 89px; height: 11px; background-color: rgb(255, 255, 255); border-style: solid; border-width: 1px; border-color: rgb(0, 0, 0); padding: 4px;&quot; valign=&quot;top&quot;&gt;&lt;p style=&quot;margin: 0px; font-style: normal; font-variant-caps: normal; font-weight: normal; font-stretch: normal; font-size: 12px; line-height: normal; font-family: Helvetica; font-size-adjust: none; font-kerning: auto; font-variant-alternates: normal; font-variant-ligatures: normal; font-variant-numeric: normal; font-variant-east-asian: normal; font-variant-position: normal; font-feature-settings: normal; font-optical-sizing: auto; font-variation-settings: normal; min-height: 14px;&quot;&gt;&lt;br&gt;&lt;/p&gt;&lt;/td&gt;&lt;td style=&quot;width: 168px; height: 11px; background-color: rgb(255, 255, 255); border-style: solid; border-width: 1px; border-color: rgb(0, 0, 0); padding: 4px;&quot; valign=&quot;top&quot;&gt;&lt;p style=&quot;margin: 0px;&quot;&gt;&lt;font style=&quot;font-style: normal; font-variant-caps: normal; font-weight: normal; font-stretch: normal; font-size: 10px; line-height: normal; font-family: &amp;quot;Helvetica Neue&amp;quot;; font-size-adjust: none; font-kerning: auto; font-variant-alternates: normal; font-variant-numeric: normal; font-variant-east-asian: normal; font-variant-position: normal; font-feature-settings: normal; font-optical-sizing: auto; font-variation-settings: normal; font-variant-ligatures: common-ligatures; color: rgb(0, 0, 0);&quot; color=&quot;#000000&quot; size=&quot;2&quot; face=&quot;Helvetica Neue&quot;&gt;Тип сенсора&lt;/font&gt;&lt;/p&gt;&lt;/td&gt;&lt;/tr&gt;&lt;tr&gt;&lt;td style=&quot;width: 107px; height: 11px; background-color: rgb(255, 255, 255); border-style: solid; border-width: 1px; border-color: rgb(0, 0, 0); padding: 4px;&quot; valign=&quot;top&quot;&gt;&lt;p style=&quot;margin: 0px;&quot;&gt;&lt;font style=&quot;font-style: normal; font-variant-caps: normal; font-weight: normal; font-stretch: normal; font-size: 10px; line-height: normal; font-family: &amp;quot;Helvetica Neue&amp;quot;; font-size-adjust: none; font-kerning: auto; font-variant-alternates: normal; font-variant-numeric: normal; font-variant-east-asian: normal; font-variant-position: normal; font-feature-settings: normal; font-optical-sizing: auto; font-variation-settings: normal; font-variant-ligatures: common-ligatures; color: rgb(0, 0, 0);&quot; color=&quot;#000000&quot; size=&quot;2&quot; face=&quot;Helvetica Neue&quot;&gt;sensor_value&lt;/font&gt;&lt;/p&gt;&lt;/td&gt;&lt;td style=&quot;width: 89px; height: 11px; background-color: rgb(255, 255, 255); border-style: solid; border-width: 1px; border-color: rgb(0, 0, 0); padding: 4px;&quot; valign=&quot;top&quot;&gt;&lt;p style=&quot;margin: 0px; font-style: normal; font-variant-caps: normal; font-weight: normal; font-stretch: normal; font-size: 12px; line-height: normal; font-family: Helvetica; font-size-adjust: none; font-kerning: auto; font-variant-alternates: normal; font-variant-ligatures: normal; font-variant-numeric: normal; font-variant-east-asian: normal; font-variant-position: normal; font-feature-settings: normal; font-optical-sizing: auto; font-variation-settings: normal; min-height: 14px;&quot;&gt;&lt;br&gt;&lt;/p&gt;&lt;/td&gt;&lt;td style=&quot;width: 89px; height: 11px; background-color: rgb(255, 255, 255); border-style: solid; border-width: 1px; border-color: rgb(0, 0, 0); padding: 4px;&quot; valign=&quot;top&quot;&gt;&lt;p style=&quot;margin: 0px;&quot;&gt;&lt;font style=&quot;font-style: normal; font-variant-caps: normal; font-weight: normal; font-stretch: normal; font-size: 10px; line-height: normal; font-family: &amp;quot;Helvetica Neue&amp;quot;; font-size-adjust: none; font-kerning: auto; font-variant-alternates: normal; font-variant-numeric: normal; font-variant-east-asian: normal; font-variant-position: normal; font-feature-settings: normal; font-optical-sizing: auto; font-variation-settings: normal; font-variant-ligatures: common-ligatures; color: rgb(0, 0, 0);&quot; color=&quot;#000000&quot; size=&quot;2&quot; face=&quot;Helvetica Neue&quot;&gt;time&lt;/font&gt;&lt;/p&gt;&lt;/td&gt;&lt;td style=&quot;width: 89px; height: 11px; background-color: rgb(255, 255, 255); border-style: solid; border-width: 1px; border-color: rgb(0, 0, 0); padding: 4px;&quot; valign=&quot;top&quot;&gt;&lt;p style=&quot;margin: 0px;&quot;&gt;&lt;font style=&quot;font-style: normal; font-variant-caps: normal; font-weight: normal; font-stretch: normal; font-size: 10px; line-height: normal; font-family: &amp;quot;Helvetica Neue&amp;quot;; font-size-adjust: none; font-kerning: auto; font-variant-alternates: normal; font-variant-numeric: normal; font-variant-east-asian: normal; font-variant-position: normal; font-feature-settings: normal; font-optical-sizing: auto; font-variation-settings: normal; font-variant-ligatures: common-ligatures; color: rgb(0, 0, 0);&quot; color=&quot;#000000&quot; size=&quot;2&quot; face=&quot;Helvetica Neue&quot;&gt;+&lt;/font&gt;&lt;/p&gt;&lt;/td&gt;&lt;td style=&quot;width: 109px; height: 11px; background-color: rgb(255, 255, 255); border-style: solid; border-width: 1px; border-color: rgb(0, 0, 0); padding: 4px;&quot; valign=&quot;top&quot;&gt;&lt;p style=&quot;margin: 0px;&quot;&gt;&lt;font style=&quot;font-style: normal; font-variant-caps: normal; font-weight: normal; font-stretch: normal; font-size: 10px; line-height: normal; font-family: &amp;quot;Helvetica Neue&amp;quot;; font-size-adjust: none; font-kerning: auto; font-variant-alternates: normal; font-variant-numeric: normal; font-variant-east-asian: normal; font-variant-position: normal; font-feature-settings: normal; font-optical-sizing: auto; font-variation-settings: normal; font-variant-ligatures: common-ligatures; color: rgb(0, 0, 0);&quot; color=&quot;#000000&quot; size=&quot;2&quot; face=&quot;Helvetica Neue&quot;&gt;Float&lt;/font&gt;&lt;/p&gt;&lt;/td&gt;&lt;td style=&quot;width: 89px; height: 11px; background-color: rgb(255, 255, 255); border-style: solid; border-width: 1px; border-color: rgb(0, 0, 0); padding: 4px;&quot; valign=&quot;top&quot;&gt;&lt;p style=&quot;margin: 0px; font-style: normal; font-variant-caps: normal; font-weight: normal; font-stretch: normal; font-size: 12px; line-height: normal; font-family: Helvetica; font-size-adjust: none; font-kerning: auto; font-variant-alternates: normal; font-variant-ligatures: normal; font-variant-numeric: normal; font-variant-east-asian: normal; font-variant-position: normal; font-feature-settings: normal; font-optical-sizing: auto; font-variation-settings: normal; min-height: 14px;&quot;&gt;&lt;br&gt;&lt;/p&gt;&lt;/td&gt;&lt;td style=&quot;width: 168px; height: 11px; background-color: rgb(255, 255, 255); border-style: solid; border-width: 1px; border-color: rgb(0, 0, 0); padding: 4px;&quot; valign=&quot;top&quot;&gt;&lt;p style=&quot;margin: 0px;&quot;&gt;&lt;font style=&quot;font-style: normal; font-variant-caps: normal; font-weight: normal; font-stretch: normal; font-size: 10px; line-height: normal; font-family: &amp;quot;Helvetica Neue&amp;quot;; font-size-adjust: none; font-kerning: auto; font-variant-alternates: normal; font-variant-numeric: normal; font-variant-east-asian: normal; font-variant-position: normal; font-feature-settings: normal; font-optical-sizing: auto; font-variation-settings: normal; font-variant-ligatures: common-ligatures; color: rgb(0, 0, 0);&quot; color=&quot;#000000&quot; size=&quot;2&quot; face=&quot;Helvetica Neue&quot;&gt;Время, за которое идет опрос&lt;/font&gt;&lt;/p&gt;&lt;/td&gt;&lt;/tr&gt;&lt;tr&gt;&lt;td style=&quot;width: 107px; height: 11px; background-color: rgb(255, 255, 255); border-style: solid; border-width: 1px; border-color: rgb(0, 0, 0); padding: 4px;&quot; valign=&quot;top&quot;&gt;&lt;p style=&quot;margin: 0px;&quot;&gt;&lt;font style=&quot;font-style: normal; font-variant-caps: normal; font-weight: normal; font-stretch: normal; font-size: 10px; line-height: normal; font-family: &amp;quot;Helvetica Neue&amp;quot;; font-size-adjust: none; font-kerning: auto; font-variant-alternates: normal; font-variant-numeric: normal; font-variant-east-asian: normal; font-variant-position: normal; font-feature-settings: normal; font-optical-sizing: auto; font-variation-settings: normal; font-variant-ligatures: common-ligatures; color: rgb(0, 0, 0);&quot; color=&quot;#000000&quot; size=&quot;2&quot; face=&quot;Helvetica Neue&quot;&gt;sensor_value&lt;/font&gt;&lt;/p&gt;&lt;/td&gt;&lt;td style=&quot;width: 89px; height: 11px; background-color: rgb(255, 255, 255); border-style: solid; border-width: 1px; border-color: rgb(0, 0, 0); padding: 4px;&quot; valign=&quot;top&quot;&gt;&lt;p style=&quot;margin: 0px; font-style: normal; font-variant-caps: normal; font-weight: normal; font-stretch: normal; font-size: 12px; line-height: normal; font-family: Helvetica; font-size-adjust: none; font-kerning: auto; font-variant-alternates: normal; font-variant-ligatures: normal; font-variant-numeric: normal; font-variant-east-asian: normal; font-variant-position: normal; font-feature-settings: normal; font-optical-sizing: auto; font-variation-settings: normal; min-height: 14px;&quot;&gt;&lt;br&gt;&lt;/p&gt;&lt;/td&gt;&lt;td style=&quot;width: 89px; height: 11px; background-color: rgb(255, 255, 255); border-style: solid; border-width: 1px; border-color: rgb(0, 0, 0); padding: 4px;&quot; valign=&quot;top&quot;&gt;&lt;p style=&quot;margin: 0px;&quot;&gt;&lt;font style=&quot;font-style: normal; font-variant-caps: normal; font-weight: normal; font-stretch: normal; font-size: 10px; line-height: normal; font-family: &amp;quot;Helvetica Neue&amp;quot;; font-size-adjust: none; font-kerning: auto; font-variant-alternates: normal; font-variant-numeric: normal; font-variant-east-asian: normal; font-variant-position: normal; font-feature-settings: normal; font-optical-sizing: auto; font-variation-settings: normal; font-variant-ligatures: common-ligatures; color: rgb(0, 0, 0);&quot; color=&quot;#000000&quot; size=&quot;2&quot; face=&quot;Helvetica Neue&quot;&gt;value&lt;/font&gt;&lt;/p&gt;&lt;/td&gt;&lt;td style=&quot;width: 89px; height: 11px; background-color: rgb(255, 255, 255); border-style: solid; border-width: 1px; border-color: rgb(0, 0, 0); padding: 4px;&quot; valign=&quot;top&quot;&gt;&lt;p style=&quot;margin: 0px;&quot;&gt;&lt;font style=&quot;font-style: normal; font-variant-caps: normal; font-weight: normal; font-stretch: normal; font-size: 10px; line-height: normal; font-family: &amp;quot;Helvetica Neue&amp;quot;; font-size-adjust: none; font-kerning: auto; font-variant-alternates: normal; font-variant-numeric: normal; font-variant-east-asian: normal; font-variant-position: normal; font-feature-settings: normal; font-optical-sizing: auto; font-variation-settings: normal; font-variant-ligatures: common-ligatures; color: rgb(0, 0, 0);&quot; color=&quot;#000000&quot; size=&quot;2&quot; face=&quot;Helvetica Neue&quot;&gt;+&lt;/font&gt;&lt;/p&gt;&lt;/td&gt;&lt;td style=&quot;width: 109px; height: 11px; background-color: rgb(255, 255, 255); border-style: solid; border-width: 1px; border-color: rgb(0, 0, 0); padding: 4px;&quot; valign=&quot;top&quot;&gt;&lt;p style=&quot;margin: 0px;&quot;&gt;&lt;font style=&quot;font-style: normal; font-variant-caps: normal; font-weight: normal; font-stretch: normal; font-size: 10px; line-height: normal; font-family: &amp;quot;Helvetica Neue&amp;quot;; font-size-adjust: none; font-kerning: auto; font-variant-alternates: normal; font-variant-numeric: normal; font-variant-east-asian: normal; font-variant-position: normal; font-feature-settings: normal; font-optical-sizing: auto; font-variation-settings: normal; font-variant-ligatures: common-ligatures; color: rgb(0, 0, 0);&quot; color=&quot;#000000&quot; size=&quot;2&quot; face=&quot;Helvetica Neue&quot;&gt;Float&lt;/font&gt;&lt;/p&gt;&lt;/td&gt;&lt;td style=&quot;width: 89px; height: 11px; background-color: rgb(255, 255, 255); border-style: solid; border-width: 1px; border-color: rgb(0, 0, 0); padding: 4px;&quot; valign=&quot;top&quot;&gt;&lt;p style=&quot;margin: 0px; font-style: normal; font-variant-caps: normal; font-weight: normal; font-stretch: normal; font-size: 12px; line-height: normal; font-family: Helvetica; font-size-adjust: none; font-kerning: auto; font-variant-alternates: normal; font-variant-ligatures: normal; font-variant-numeric: normal; font-variant-east-asian: normal; font-variant-position: normal; font-feature-settings: normal; font-optical-sizing: auto; font-variation-settings: normal; min-height: 14px;&quot;&gt;&lt;br&gt;&lt;/p&gt;&lt;/td&gt;&lt;td style=&quot;width: 168px; height: 11px; background-color: rgb(255, 255, 255); border-style: solid; border-width: 1px; border-color: rgb(0, 0, 0); padding: 4px;&quot; valign=&quot;top&quot;&gt;&lt;p style=&quot;margin: 0px;&quot;&gt;&lt;font style=&quot;font-style: normal; font-variant-caps: normal; font-weight: normal; font-stretch: normal; font-size: 10px; line-height: normal; font-family: &amp;quot;Helvetica Neue&amp;quot;; font-size-adjust: none; font-kerning: auto; font-variant-alternates: normal; font-variant-numeric: normal; font-variant-east-asian: normal; font-variant-position: normal; font-feature-settings: normal; font-optical-sizing: auto; font-variation-settings: normal; font-variant-ligatures: common-ligatures; color: rgb(0, 0, 0);&quot; color=&quot;#000000&quot; size=&quot;2&quot; face=&quot;Helvetica Neue&quot;&gt;Значение, передаваемое сенсором&lt;/font&gt;&lt;/p&gt;&lt;/td&gt;&lt;/tr&gt;&lt;tr&gt;&lt;td style=&quot;width: 107px; height: 11px; background-color: rgb(128, 127, 127); border-style: solid; border-width: 1px; border-color: rgb(0, 0, 0); padding: 4px;&quot; valign=&quot;top&quot;&gt;&lt;p style=&quot;margin: 0px;&quot;&gt;&lt;font style=&quot;font-style: normal; font-variant-caps: normal; font-weight: normal; font-stretch: normal; font-size: 10px; line-height: normal; font-family: &amp;quot;Helvetica Neue&amp;quot;; font-size-adjust: none; font-kerning: auto; font-variant-alternates: normal; font-variant-numeric: normal; font-variant-east-asian: normal; font-variant-position: normal; font-feature-settings: normal; font-optical-sizing: auto; font-variation-settings: normal; font-variant-ligatures: common-ligatures; color: rgb(0, 0, 0);&quot; color=&quot;#000000&quot; size=&quot;2&quot; face=&quot;Helvetica Neue&quot;&gt;sensor_value&lt;/font&gt;&lt;/p&gt;&lt;/td&gt;&lt;td style=&quot;width: 89px; height: 11px; background-color: rgb(128, 127, 127); border-style: solid; border-width: 1px; border-color: rgb(0, 0, 0); padding: 4px;&quot; valign=&quot;top&quot;&gt;&lt;p style=&quot;margin: 0px; font-style: normal; font-variant-caps: normal; font-weight: normal; font-stretch: normal; font-size: 12px; line-height: normal; font-family: Helvetica; font-size-adjust: none; font-kerning: auto; font-variant-alternates: normal; font-variant-ligatures: normal; font-variant-numeric: normal; font-variant-east-asian: normal; font-variant-position: normal; font-feature-settings: normal; font-optical-sizing: auto; font-variation-settings: normal; min-height: 14px;&quot;&gt;&lt;br&gt;&lt;/p&gt;&lt;/td&gt;&lt;td style=&quot;width: 89px; height: 11px; background-color: rgb(128, 127, 127); border-style: solid; border-width: 1px; border-color: rgb(0, 0, 0); padding: 4px;&quot; valign=&quot;top&quot;&gt;&lt;p style=&quot;margin: 0px;&quot;&gt;&lt;font style=&quot;font-style: normal; font-variant-caps: normal; font-weight: normal; font-stretch: normal; font-size: 10px; line-height: normal; font-family: &amp;quot;Helvetica Neue&amp;quot;; font-size-adjust: none; font-kerning: auto; font-variant-alternates: normal; font-variant-numeric: normal; font-variant-east-asian: normal; font-variant-position: normal; font-feature-settings: normal; font-optical-sizing: auto; font-variation-settings: normal; font-variant-ligatures: common-ligatures; color: rgb(0, 0, 0);&quot; color=&quot;#000000&quot; size=&quot;2&quot; face=&quot;Helvetica Neue&quot;&gt;Sensors&lt;/font&gt;&lt;/p&gt;&lt;/td&gt;&lt;td style=&quot;width: 89px; height: 11px; background-color: rgb(128, 127, 127); border-style: solid; border-width: 1px; border-color: rgb(0, 0, 0); padding: 4px;&quot; valign=&quot;top&quot;&gt;&lt;p style=&quot;margin: 0px;&quot;&gt;&lt;font style=&quot;font-style: normal; font-variant-caps: normal; font-weight: normal; font-stretch: normal; font-size: 10px; line-height: normal; font-family: &amp;quot;Helvetica Neue&amp;quot;; font-size-adjust: none; font-kerning: auto; font-variant-alternates: normal; font-variant-numeric: normal; font-variant-east-asian: normal; font-variant-position: normal; font-feature-settings: normal; font-optical-sizing: auto; font-variation-settings: normal; font-variant-ligatures: common-ligatures; color: rgb(0, 0, 0);&quot; color=&quot;#000000&quot; size=&quot;2&quot; face=&quot;Helvetica Neue&quot;&gt;+&lt;/font&gt;&lt;/p&gt;&lt;/td&gt;&lt;td style=&quot;width: 109px; height: 11px; background-color: rgb(128, 127, 127); border-style: solid; border-width: 1px; border-color: rgb(0, 0, 0); padding: 4px;&quot; valign=&quot;top&quot;&gt;&lt;p style=&quot;margin: 0px;&quot;&gt;&lt;font style=&quot;font-style: normal; font-variant-caps: normal; font-weight: normal; font-stretch: normal; font-size: 10px; line-height: normal; font-family: &amp;quot;Helvetica Neue&amp;quot;; font-size-adjust: none; font-kerning: auto; font-variant-alternates: normal; font-variant-numeric: normal; font-variant-east-asian: normal; font-variant-position: normal; font-feature-settings: normal; font-optical-sizing: auto; font-variation-settings: normal; font-variant-ligatures: common-ligatures; color: rgb(0, 0, 0);&quot; color=&quot;#000000&quot; size=&quot;2&quot; face=&quot;Helvetica Neue&quot;&gt;sensor&lt;/font&gt;&lt;/p&gt;&lt;/td&gt;&lt;td style=&quot;width: 89px; height: 11px; background-color: rgb(128, 127, 127); border-style: solid; border-width: 1px; border-color: rgb(0, 0, 0); padding: 4px;&quot; valign=&quot;top&quot;&gt;&lt;p style=&quot;margin: 0px; font-style: normal; font-variant-caps: normal; font-weight: normal; font-stretch: normal; font-size: 12px; line-height: normal; font-family: Helvetica; font-size-adjust: none; font-kerning: auto; font-variant-alternates: normal; font-variant-ligatures: normal; font-variant-numeric: normal; font-variant-east-asian: normal; font-variant-position: normal; font-feature-settings: normal; font-optical-sizing: auto; font-variation-settings: normal; min-height: 14px;&quot;&gt;&lt;br&gt;&lt;/p&gt;&lt;/td&gt;&lt;td style=&quot;width: 168px; height: 11px; background-color: rgb(128, 127, 127); border-style: solid; border-width: 1px; border-color: rgb(0, 0, 0); padding: 4px;&quot; valign=&quot;top&quot;&gt;&lt;p style=&quot;margin: 0px; font-style: normal; font-variant-caps: normal; font-weight: normal; font-stretch: normal; font-size: 12px; line-height: normal; font-family: Helvetica; font-size-adjust: none; font-kerning: auto; font-variant-alternates: normal; font-variant-ligatures: normal; font-variant-numeric: normal; font-variant-east-asian: normal; font-variant-position: normal; font-feature-settings: normal; font-optical-sizing: auto; font-variation-settings: normal; min-height: 14px;&quot;&gt;&lt;br&gt;&lt;/p&gt;&lt;/td&gt;&lt;/tr&gt;&lt;/tbody&gt;&lt;/table&gt;" style="edgeLabel;html=1;align=center;verticalAlign=middle;resizable=0;points=[];" parent="WIyWlLk6GJQsqaUBKTNV-1" vertex="1" connectable="0">
          <mxGeometry x="730.004594350478" y="750.0034709359278" as="geometry">
            <mxPoint x="-16" y="46" as="offset" />
          </mxGeometry>
        </mxCell>
        <mxCell id="kvBeb9Sq8FiOZc7AMm16-6" value="sensors" style="edgeLabel;html=1;align=center;verticalAlign=middle;resizable=0;points=[];" parent="WIyWlLk6GJQsqaUBKTNV-1" vertex="1" connectable="0">
          <mxGeometry x="534.9986193975385" y="222.00391435821254" as="geometry">
            <mxPoint x="171" y="-25" as="offset" />
          </mxGeometry>
        </mxCell>
        <mxCell id="kvBeb9Sq8FiOZc7AMm16-8" value="&lt;table cellspacing=&quot;0&quot; cellpadding=&quot;0&quot; style=&quot;caret-color: rgb(0, 0, 0); color: rgb(0, 0, 0); font-style: normal; font-variant-caps: normal; font-weight: 400; letter-spacing: normal; text-align: start; text-transform: none; word-spacing: 0px; -webkit-text-stroke-width: 0px; text-decoration: none; border-collapse: collapse;&quot;&gt;&lt;tbody&gt;&lt;tr&gt;&lt;td valign=&quot;top&quot; style=&quot;width: 121px; height: 11px; background-color: rgb(204, 204, 204); border-style: solid; border-width: 1px; border-color: rgb(0, 0, 0); padding: 4px;&quot;&gt;&lt;p align=&quot;center&quot; style=&quot;margin: 0px; text-align: center;&quot;&gt;&lt;font face=&quot;Helvetica Neue&quot; size=&quot;2&quot; color=&quot;#000000&quot; style=&quot;font-style: normal; font-variant-caps: normal; font-weight: normal; font-stretch: normal; font-size: 10px; line-height: normal; font-family: &amp;quot;Helvetica Neue&amp;quot;; font-size-adjust: none; font-kerning: auto; font-variant-alternates: normal; font-variant-numeric: normal; font-variant-east-asian: normal; font-variant-position: normal; font-feature-settings: normal; font-optical-sizing: auto; font-variation-settings: normal; font-variant-ligatures: common-ligatures; color: rgb(0, 0, 0);&quot;&gt;&lt;b&gt;Сущность&lt;/b&gt;&lt;/font&gt;&lt;/p&gt;&lt;/td&gt;&lt;td valign=&quot;top&quot; style=&quot;width: 165px; height: 11px; background-color: rgb(204, 204, 204); border-style: solid; border-width: 1px; border-color: rgb(0, 0, 0); padding: 4px;&quot;&gt;&lt;p align=&quot;center&quot; style=&quot;margin: 0px; text-align: center;&quot;&gt;&lt;font face=&quot;Helvetica Neue&quot; size=&quot;2&quot; color=&quot;#000000&quot; style=&quot;font-style: normal; font-variant-caps: normal; font-weight: normal; font-stretch: normal; font-size: 10px; line-height: normal; font-family: &amp;quot;Helvetica Neue&amp;quot;; font-size-adjust: none; font-kerning: auto; font-variant-alternates: normal; font-variant-numeric: normal; font-variant-east-asian: normal; font-variant-position: normal; font-feature-settings: normal; font-optical-sizing: auto; font-variation-settings: normal; font-variant-ligatures: common-ligatures; color: rgb(0, 0, 0);&quot;&gt;&lt;b&gt;Наименование&lt;/b&gt;&lt;/font&gt;&lt;/p&gt;&lt;/td&gt;&lt;/tr&gt;&lt;tr&gt;&lt;td valign=&quot;top&quot; style=&quot;width: 121px; height: 11px; background-color: rgb(255, 255, 255); border-style: solid; border-width: 1px; border-color: rgb(0, 0, 0); padding: 4px;&quot;&gt;&lt;p style=&quot;margin: 0px;&quot;&gt;&lt;font face=&quot;Helvetica Neue&quot; size=&quot;2&quot; color=&quot;#000000&quot; style=&quot;font-style: normal; font-variant-caps: normal; font-weight: normal; font-stretch: normal; font-size: 10px; line-height: normal; font-family: &amp;quot;Helvetica Neue&amp;quot;; font-size-adjust: none; font-kerning: auto; font-variant-alternates: normal; font-variant-numeric: normal; font-variant-east-asian: normal; font-variant-position: normal; font-feature-settings: normal; font-optical-sizing: auto; font-variation-settings: normal; font-variant-ligatures: common-ligatures; color: rgb(0, 0, 0);&quot;&gt;hardware&lt;/font&gt;&lt;/p&gt;&lt;/td&gt;&lt;td valign=&quot;top&quot; style=&quot;width: 165px; height: 11px; background-color: rgb(255, 255, 255); border-style: solid; border-width: 1px; border-color: rgb(0, 0, 0); padding: 4px;&quot;&gt;&lt;p style=&quot;margin: 0px;&quot;&gt;&lt;font face=&quot;Helvetica Neue&quot; size=&quot;2&quot; color=&quot;#000000&quot; style=&quot;font-style: normal; font-variant-caps: normal; font-weight: normal; font-stretch: normal; font-size: 10px; line-height: normal; font-family: &amp;quot;Helvetica Neue&amp;quot;; font-size-adjust: none; font-kerning: auto; font-variant-alternates: normal; font-variant-numeric: normal; font-variant-east-asian: normal; font-variant-position: normal; font-feature-settings: normal; font-optical-sizing: auto; font-variation-settings: normal; font-variant-ligatures: common-ligatures; color: rgb(0, 0, 0);&quot;&gt;Компонент&lt;/font&gt;&lt;/p&gt;&lt;/td&gt;&lt;/tr&gt;&lt;tr&gt;&lt;td valign=&quot;top&quot; style=&quot;width: 121px; height: 11px; background-color: rgb(255, 255, 255); border-style: solid; border-width: 1px; border-color: rgb(0, 0, 0); padding: 4px;&quot;&gt;&lt;p style=&quot;margin: 0px;&quot;&gt;&lt;font face=&quot;Helvetica Neue&quot; size=&quot;2&quot; color=&quot;#000000&quot; style=&quot;font-style: normal; font-variant-caps: normal; font-weight: normal; font-stretch: normal; font-size: 10px; line-height: normal; font-family: &amp;quot;Helvetica Neue&amp;quot;; font-size-adjust: none; font-kerning: auto; font-variant-alternates: normal; font-variant-numeric: normal; font-variant-east-asian: normal; font-variant-position: normal; font-feature-settings: normal; font-optical-sizing: auto; font-variation-settings: normal; font-variant-ligatures: common-ligatures; color: rgb(0, 0, 0);&quot;&gt;hardware_information&lt;/font&gt;&lt;/p&gt;&lt;/td&gt;&lt;td valign=&quot;top&quot; style=&quot;width: 165px; height: 11px; background-color: rgb(255, 255, 255); border-style: solid; border-width: 1px; border-color: rgb(0, 0, 0); padding: 4px;&quot;&gt;&lt;p style=&quot;margin: 0px;&quot;&gt;&lt;font face=&quot;Helvetica Neue&quot; size=&quot;2&quot; color=&quot;#000000&quot; style=&quot;font-style: normal; font-variant-caps: normal; font-weight: normal; font-stretch: normal; font-size: 10px; line-height: normal; font-family: &amp;quot;Helvetica Neue&amp;quot;; font-size-adjust: none; font-kerning: auto; font-variant-alternates: normal; font-variant-numeric: normal; font-variant-east-asian: normal; font-variant-position: normal; font-feature-settings: normal; font-optical-sizing: auto; font-variation-settings: normal; font-variant-ligatures: common-ligatures; color: rgb(0, 0, 0);&quot;&gt;Характеристики компонента&lt;/font&gt;&lt;/p&gt;&lt;/td&gt;&lt;/tr&gt;&lt;tr&gt;&lt;td valign=&quot;top&quot; style=&quot;width: 121px; height: 11px; background-color: rgb(255, 255, 255); border-style: solid; border-width: 1px; border-color: rgb(0, 0, 0); padding: 4px;&quot;&gt;&lt;p style=&quot;margin: 0px;&quot;&gt;&lt;font face=&quot;Helvetica Neue&quot; size=&quot;2&quot; color=&quot;#000000&quot; style=&quot;font-style: normal; font-variant-caps: normal; font-weight: normal; font-stretch: normal; font-size: 10px; line-height: normal; font-family: &amp;quot;Helvetica Neue&amp;quot;; font-size-adjust: none; font-kerning: auto; font-variant-alternates: normal; font-variant-numeric: normal; font-variant-east-asian: normal; font-variant-position: normal; font-feature-settings: normal; font-optical-sizing: auto; font-variation-settings: normal; font-variant-ligatures: common-ligatures; color: rgb(0, 0, 0);&quot;&gt;sensor&lt;/font&gt;&lt;/p&gt;&lt;/td&gt;&lt;td valign=&quot;top&quot; style=&quot;width: 165px; height: 11px; background-color: rgb(255, 255, 255); border-style: solid; border-width: 1px; border-color: rgb(0, 0, 0); padding: 4px;&quot;&gt;&lt;p style=&quot;margin: 0px;&quot;&gt;&lt;font face=&quot;Helvetica Neue&quot; size=&quot;2&quot; color=&quot;#000000&quot; style=&quot;font-style: normal; font-variant-caps: normal; font-weight: normal; font-stretch: normal; font-size: 10px; line-height: normal; font-family: &amp;quot;Helvetica Neue&amp;quot;; font-size-adjust: none; font-kerning: auto; font-variant-alternates: normal; font-variant-numeric: normal; font-variant-east-asian: normal; font-variant-position: normal; font-feature-settings: normal; font-optical-sizing: auto; font-variation-settings: normal; font-variant-ligatures: common-ligatures; color: rgb(0, 0, 0);&quot;&gt;Сенсор&lt;/font&gt;&lt;/p&gt;&lt;/td&gt;&lt;/tr&gt;&lt;tr&gt;&lt;td valign=&quot;top&quot; style=&quot;width: 121px; height: 11px; background-color: rgb(255, 255, 255); border-style: solid; border-width: 1px; border-color: rgb(0, 0, 0); padding: 4px;&quot;&gt;&lt;p style=&quot;margin: 0px;&quot;&gt;&lt;font face=&quot;Helvetica Neue&quot; size=&quot;2&quot; color=&quot;#000000&quot; style=&quot;font-style: normal; font-variant-caps: normal; font-weight: normal; font-stretch: normal; font-size: 10px; line-height: normal; font-family: &amp;quot;Helvetica Neue&amp;quot;; font-size-adjust: none; font-kerning: auto; font-variant-alternates: normal; font-variant-numeric: normal; font-variant-east-asian: normal; font-variant-position: normal; font-feature-settings: normal; font-optical-sizing: auto; font-variation-settings: normal; font-variant-ligatures: common-ligatures; color: rgb(0, 0, 0);&quot;&gt;hardware_part&lt;/font&gt;&lt;/p&gt;&lt;/td&gt;&lt;td valign=&quot;top&quot; style=&quot;width: 165px; height: 11px; background-color: rgb(255, 255, 255); border-style: solid; border-width: 1px; border-color: rgb(0, 0, 0); padding: 4px;&quot;&gt;&lt;p style=&quot;margin: 0px;&quot;&gt;&lt;font face=&quot;Helvetica Neue&quot; size=&quot;2&quot; color=&quot;#000000&quot; style=&quot;font-style: normal; font-variant-caps: normal; font-weight: normal; font-stretch: normal; font-size: 10px; line-height: normal; font-family: &amp;quot;Helvetica Neue&amp;quot;; font-size-adjust: none; font-kerning: auto; font-variant-alternates: normal; font-variant-numeric: normal; font-variant-east-asian: normal; font-variant-position: normal; font-feature-settings: normal; font-optical-sizing: auto; font-variation-settings: normal; font-variant-ligatures: common-ligatures; color: rgb(0, 0, 0);&quot;&gt;Часть компонента&lt;/font&gt;&lt;/p&gt;&lt;/td&gt;&lt;/tr&gt;&lt;tr&gt;&lt;td valign=&quot;top&quot; style=&quot;width: 121px; height: 11px; background-color: rgb(255, 255, 255); border-style: solid; border-width: 1px; border-color: rgb(0, 0, 0); padding: 4px;&quot;&gt;&lt;p style=&quot;margin: 0px;&quot;&gt;&lt;font face=&quot;Helvetica Neue&quot; size=&quot;2&quot; color=&quot;#000000&quot; style=&quot;font-style: normal; font-variant-caps: normal; font-weight: normal; font-stretch: normal; font-size: 10px; line-height: normal; font-family: &amp;quot;Helvetica Neue&amp;quot;; font-size-adjust: none; font-kerning: auto; font-variant-alternates: normal; font-variant-numeric: normal; font-variant-east-asian: normal; font-variant-position: normal; font-feature-settings: normal; font-optical-sizing: auto; font-variation-settings: normal; font-variant-ligatures: common-ligatures; color: rgb(0, 0, 0);&quot;&gt;sensor_value&lt;/font&gt;&lt;/p&gt;&lt;/td&gt;&lt;td valign=&quot;top&quot; style=&quot;width: 165px; height: 11px; background-color: rgb(255, 255, 255); border-style: solid; border-width: 1px; border-color: rgb(0, 0, 0); padding: 4px;&quot;&gt;&lt;p style=&quot;margin: 0px;&quot;&gt;&lt;font face=&quot;Helvetica Neue&quot; size=&quot;2&quot; color=&quot;#000000&quot; style=&quot;font-style: normal; font-variant-caps: normal; font-weight: normal; font-stretch: normal; font-size: 10px; line-height: normal; font-family: &amp;quot;Helvetica Neue&amp;quot;; font-size-adjust: none; font-kerning: auto; font-variant-alternates: normal; font-variant-numeric: normal; font-variant-east-asian: normal; font-variant-position: normal; font-feature-settings: normal; font-optical-sizing: auto; font-variation-settings: normal; font-variant-ligatures: common-ligatures; color: rgb(0, 0, 0);&quot;&gt;Значение сенсора&lt;/font&gt;&lt;/p&gt;&lt;/td&gt;&lt;/tr&gt;&lt;tr&gt;&lt;td valign=&quot;top&quot; style=&quot;width: 121px; height: 11px; background-color: rgb(255, 255, 255); border-style: solid; border-width: 1px; border-color: rgb(0, 0, 0); padding: 4px;&quot;&gt;&lt;p style=&quot;margin: 0px;&quot;&gt;&lt;font face=&quot;Helvetica Neue&quot; size=&quot;2&quot; color=&quot;#000000&quot; style=&quot;font-style: normal; font-variant-caps: normal; font-weight: normal; font-stretch: normal; font-size: 10px; line-height: normal; font-family: &amp;quot;Helvetica Neue&amp;quot;; font-size-adjust: none; font-kerning: auto; font-variant-alternates: normal; font-variant-numeric: normal; font-variant-east-asian: normal; font-variant-position: normal; font-feature-settings: normal; font-optical-sizing: auto; font-variation-settings: normal; font-variant-ligatures: common-ligatures; color: rgb(0, 0, 0);&quot;&gt;information_type&amp;nbsp;&lt;/font&gt;(?)&lt;/p&gt;&lt;/td&gt;&lt;td valign=&quot;top&quot; style=&quot;width: 165px; height: 11px; background-color: rgb(255, 255, 255); border-style: solid; border-width: 1px; border-color: rgb(0, 0, 0); padding: 4px;&quot;&gt;&lt;p style=&quot;margin: 0px;&quot;&gt;&lt;font face=&quot;Helvetica Neue&quot; size=&quot;2&quot; color=&quot;#000000&quot; style=&quot;font-style: normal; font-variant-caps: normal; font-weight: normal; font-stretch: normal; font-size: 10px; line-height: normal; font-family: &amp;quot;Helvetica Neue&amp;quot;; font-size-adjust: none; font-kerning: auto; font-variant-alternates: normal; font-variant-numeric: normal; font-variant-east-asian: normal; font-variant-position: normal; font-feature-settings: normal; font-optical-sizing: auto; font-variation-settings: normal; font-variant-ligatures: common-ligatures; color: rgb(0, 0, 0);&quot;&gt;Тип информации&lt;/font&gt;&lt;/p&gt;&lt;/td&gt;&lt;/tr&gt;&lt;tr&gt;&lt;td valign=&quot;top&quot; style=&quot;width: 121px; height: 12px; background-color: rgb(255, 255, 255); border-style: solid; border-width: 1px; border-color: rgb(0, 0, 0); padding: 4px;&quot;&gt;&lt;p style=&quot;margin: 0px;&quot;&gt;&lt;font face=&quot;Helvetica Neue&quot; size=&quot;2&quot; color=&quot;#000000&quot; style=&quot;font-style: normal; font-variant-caps: normal; font-weight: normal; font-stretch: normal; font-size: 10px; line-height: normal; font-family: &amp;quot;Helvetica Neue&amp;quot;; font-size-adjust: none; font-kerning: auto; font-variant-alternates: normal; font-variant-numeric: normal; font-variant-east-asian: normal; font-variant-position: normal; font-feature-settings: normal; font-optical-sizing: auto; font-variation-settings: normal; font-variant-ligatures: common-ligatures; color: rgb(0, 0, 0);&quot;&gt;hardware_type&amp;nbsp;&lt;/font&gt;(?)&lt;/p&gt;&lt;/td&gt;&lt;td valign=&quot;top&quot; style=&quot;width: 165px; height: 12px; background-color: rgb(255, 255, 255); border-style: solid; border-width: 1px; border-color: rgb(0, 0, 0); padding: 4px;&quot;&gt;&lt;p style=&quot;margin: 0px;&quot;&gt;&lt;font face=&quot;Helvetica Neue&quot; size=&quot;2&quot; color=&quot;#000000&quot; style=&quot;font-style: normal; font-variant-caps: normal; font-weight: normal; font-stretch: normal; font-size: 10px; line-height: normal; font-family: &amp;quot;Helvetica Neue&amp;quot;; font-size-adjust: none; font-kerning: auto; font-variant-alternates: normal; font-variant-numeric: normal; font-variant-east-asian: normal; font-variant-position: normal; font-feature-settings: normal; font-optical-sizing: auto; font-variation-settings: normal; font-variant-ligatures: common-ligatures; color: rgb(0, 0, 0);&quot;&gt;Тип компонента&lt;/font&gt;&lt;/p&gt;&lt;/td&gt;&lt;/tr&gt;&lt;tr&gt;&lt;td valign=&quot;top&quot; style=&quot;width: 121px; height: 11px; background-color: rgb(255, 255, 255); border-style: solid; border-width: 1px; border-color: rgb(0, 0, 0); padding: 4px;&quot;&gt;&lt;p style=&quot;margin: 0px;&quot;&gt;&lt;font face=&quot;Helvetica Neue&quot; size=&quot;2&quot; color=&quot;#000000&quot; style=&quot;font-style: normal; font-variant-caps: normal; font-weight: normal; font-stretch: normal; font-size: 10px; line-height: normal; font-family: &amp;quot;Helvetica Neue&amp;quot;; font-size-adjust: none; font-kerning: auto; font-variant-alternates: normal; font-variant-numeric: normal; font-variant-east-asian: normal; font-variant-position: normal; font-feature-settings: normal; font-optical-sizing: auto; font-variation-settings: normal; font-variant-ligatures: common-ligatures; color: rgb(0, 0, 0);&quot;&gt;sensor_type&amp;nbsp;&lt;/font&gt;(?)&lt;/p&gt;&lt;/td&gt;&lt;td valign=&quot;top&quot; style=&quot;width: 165px; height: 11px; background-color: rgb(255, 255, 255); border-style: solid; border-width: 1px; border-color: rgb(0, 0, 0); padding: 4px;&quot;&gt;&lt;p style=&quot;margin: 0px;&quot;&gt;&lt;font face=&quot;Helvetica Neue&quot; size=&quot;2&quot; color=&quot;#000000&quot; style=&quot;font-style: normal; font-variant-caps: normal; font-weight: normal; font-stretch: normal; font-size: 10px; line-height: normal; font-family: &amp;quot;Helvetica Neue&amp;quot;; font-size-adjust: none; font-kerning: auto; font-variant-alternates: normal; font-variant-numeric: normal; font-variant-east-asian: normal; font-variant-position: normal; font-feature-settings: normal; font-optical-sizing: auto; font-variation-settings: normal; font-variant-ligatures: common-ligatures; color: rgb(0, 0, 0);&quot;&gt;Тип сенсора&lt;/font&gt;&lt;/p&gt;&lt;/td&gt;&lt;/tr&gt;&lt;tr&gt;&lt;td valign=&quot;top&quot; style=&quot;width: 121px; height: 11px; background-color: rgb(255, 255, 255); border-style: solid; border-width: 1px; border-color: rgb(0, 0, 0); padding: 4px;&quot;&gt;&lt;p style=&quot;margin: 0px;&quot;&gt;&lt;font face=&quot;Helvetica Neue&quot; size=&quot;2&quot; color=&quot;#000000&quot; style=&quot;font-style: normal; font-variant-caps: normal; font-weight: normal; font-stretch: normal; font-size: 10px; line-height: normal; font-family: &amp;quot;Helvetica Neue&amp;quot;; font-size-adjust: none; font-kerning: auto; font-variant-alternates: normal; font-variant-numeric: normal; font-variant-east-asian: normal; font-variant-position: normal; font-feature-settings: normal; font-optical-sizing: auto; font-variation-settings: normal; font-variant-ligatures: common-ligatures; color: rgb(0, 0, 0);&quot;&gt;hardware_part_type&amp;nbsp;&lt;/font&gt;(?)&lt;/p&gt;&lt;/td&gt;&lt;td valign=&quot;top&quot; style=&quot;width: 165px; height: 11px; background-color: rgb(255, 255, 255); border-style: solid; border-width: 1px; border-color: rgb(0, 0, 0); padding: 4px;&quot;&gt;&lt;p style=&quot;margin: 0px;&quot;&gt;&lt;font face=&quot;Helvetica Neue&quot; size=&quot;2&quot; color=&quot;#000000&quot; style=&quot;font-style: normal; font-variant-caps: normal; font-weight: normal; font-stretch: normal; font-size: 10px; line-height: normal; font-family: &amp;quot;Helvetica Neue&amp;quot;; font-size-adjust: none; font-kerning: auto; font-variant-alternates: normal; font-variant-numeric: normal; font-variant-east-asian: normal; font-variant-position: normal; font-feature-settings: normal; font-optical-sizing: auto; font-variation-settings: normal; font-variant-ligatures: common-ligatures; color: rgb(0, 0, 0);&quot;&gt;Тип части компонента&lt;/font&gt;&lt;/p&gt;&lt;/td&gt;&lt;/tr&gt;&lt;/tbody&gt;&lt;/table&gt;" style="text;whiteSpace=wrap;html=1;" parent="WIyWlLk6GJQsqaUBKTNV-1" vertex="1">
          <mxGeometry y="553" width="340" height="250" as="geometry" />
        </mxCell>
      </root>
    </mxGraphModel>
  </diagram>
</mxfile>
